<svg xmlns="http://www.w3.org/2000/svg" viewbox="0 0 640 480">
  <path d="M234 353c-4-4-7-9-9-15-1-6 0-12-2-17-1-5 3-10 0-15 0-2 1-3 3-3l6-1c2 0 3-2 4-4 2-6 2-12-2-17-1-2-3-4 0-6 4-1 5 3 7 6 2 6 5 12 6 19 0 5-1 8-5 11h-6c-4-2-5-1-6 3-1 3-2 5-1 8l1 12c1 6 5 10 8 13l6 5c6 8 16 10 24 14l10 5c17 7 34 9 53 7 9-1 16-5 24-8l22-9c5-3 12-5 15-11 2-3 5-6 9-5 2 4-2 6-4 9-3 4-8 7-13 11l-5 1h-3c-4 5-11 6-16 9-8 4-16 5-24 7-9 1-19 2-29 1-12-1-23-3-33-9h-1l-26-11c-5-2-9-7-13-10Z" fill="#211916"/>
  <path d="M322 388c-22 3-41-4-60-13-1-3 0-4 2-4 3 0 5 0 7 2 13 7 27 10 42 10 10 1 21 0 31-3l20-8c3-1 6-2 6 3-13 6-26 11-40 13h-8Z" fill="#191310"/>
  <path d="M265 68a104 104 0 0 1 81-8c0 2 6 2 2 6l-6-1-8-2c-10-3-21-2-32-1l-4 1h-2l-5 1-3 1c-10 3-20 7-28 14-2 2-4 4-7 4-1-3 1-4 2-5 3-4 8-6 10-10Z" fill="#28221f"/>
  <path d="M348 65c0-2 1-3-2-3-1 0-2-1 0-2 14 4 27 11 38 20l2 2c3 6 6 11 10 15 3 3 5 6 6 10l1 1 1 3 1 2 2 5 7 12-1 4c-2 1-2-1-3-2-3-5-7-10-9-16-3-5-5-11-11-14l-3-5c-5-12-15-20-27-25a96 96 0 0 0-11-6l-1-1Z" fill="#251d1a"/>
  <path d="M370 375c-1-3-3-4-6-2-9 5-19 8-29 10-6 2-12 2-18 1-9-1-17 0-25-2-7-1-13-5-20-8l-6-2c-3-1-4 1-4 3l-16-10v-3c5-1 8 3 12 5l5 2c8 1 13 6 19 8 12 3 23 6 35 5 12 0 23-2 34-5 8-3 17-5 23-11 2-1 3-2 5-1 0 2-2 4-4 5l-4 4-1 1Z" fill="#1d1613"/>
  <path d="M222 323c-1-10-3-20 0-30v-16l-1-11-2-13c3 0 3 2 4 4 0 1 0 3 2 5v2l1 3 4 6c3 5 3 11 4 17 1 3 0 5-3 6-2 0-4-1-5 1-1 3-3 6-2 10v15l-2 1Z" fill="#1b1310"/>
  <path d="M222 323c2-6 1-12 1-18-1-5 4-7 2-11l4 1c3 1 5-2 4-5-2-5-1-12-4-17l1-2c2 0 3 1 4 3v1c-1 3 1 6 3 8 2 4 2 7 1 12-1 7-4 9-11 9-2-1-4 1-2 4 3 3 0 6 0 9 0 6 2 11 1 17l-1 4c-3-5-2-10-3-15Z" fill="#201715"/>
  <path d="M414 250c-3 15-2 30-1 46v6c-4-1-2-4-3-6 0-4 0-8-5-10l-2-2c-1-7-5-13 0-19 2-2 2-5 2-7 0-3 2-5 4-7l4-2c1 0 2 0 1 1Z" fill="#1a130f"/>
  <path d="M413 130c-4-3-4-8-7-12-1-2-2-4-1-6 0-1 0-3 2-3a126 126 0 0 1 13 49l1 7c1 8 0 16-1 24-3 1-3 1-3-2v-15l-1-12v-5c1-6-3-12-3-18v-7Z" fill="#1f1917"/>
  <path d="M265 68c1 2 0 3-1 4-5 2-8 6-11 10-2 5-6 7-9 11-3 2-4 6-8 5l-5-1c9-12 20-22 34-29Z" fill="#241e1d"/>
  <path d="M231 97c2 1 4-4 5 1 1 4-2 6-4 9l-5 10-3 3c-3 3-4 7-5 10l-1 5c-1 2-1 5-3 7-3 0-1-3-2-4 3-14 8-27 16-39l2-2Z" fill="#221c1a"/>
  <path d="M411 295c2 2 0 5 2 7 1 16-1 31-9 45l-4 5c-1 1-2 2-4 1 2-3 5-4 5-8 0-5 3-9 4-13 3-3 3-7 3-11l2-21 1-5Z" fill="#1d1613"/>
  <path d="M429 221c-1 7-2 15-5 21l-1 1c-1 1-2 3-4 2-2 0-2-2-2-4l1-4 1-2 4-14c0-3 0-5 3-7 0-1 1-2 2-1 2 0 1 1 1 2v6Z" fill="#976155"/>
  <path d="M416 159c3 1 2 3 2 4v23c0 1-2 4 2 3l-1 9c2 3 1 6 1 9v6c0 6 1 12-1 18-3 3-1 8-5 12-1 0-1 3-4 1-1-3 1-6 2-9 3-9 5-18 5-28l-1-20v-28Z" fill="#281b13"/>
  <path d="M203 216v-10c3-1 5 1 6 3l5 8 1 12 2 14c-3 2-4 0-4-2-1-6-4-12-4-19 0-4-2-6-6-6Z" fill="#723f35"/>
  <path d="M210 246c-4-9-5-18-7-27 4-2 6-1 6 3l5 20c1 4 1 5-4 4Z" fill="#976051"/>
  <path d="m396 353 4-1c-1 4-5 6-8 9-6 5-13 10-21 13l1-4 7-5c8-1 12-7 17-12Z" fill="#191310"/>
  <path d="M402 108c-3-7-8-12-12-17l-4-6c-2-1-2-2 0-3 7 6 13 13 18 22l-2 4Z" fill="#231c1a"/>
  <path d="M213 138c2 1 0 3 2 4v7c0 4-2 8-1 12v18l-1 2h-1l-1-2c-2-6-1-11-1-17l1-7 2-17Z" fill="#170f09"/>
  <path d="m429 221-1-8c-3 2-4 5-4 8 0 6-1 11-5 15l-1-3 3-15c0-4 2-7 5-10h4c1 5 1 9-1 13Z" fill="#86564c"/>
  <path d="M210 246c3 0 5-1 3-4l-5-20c0-3-2-4-5-3v-3c1-1 2-3 4-1s3 4 3 7c1 8 3 15 6 22l1 2c0 2 0 4-2 4s-3-2-4-3l-1-1Z" fill="#8f5a4e"/>
  <path d="M246 362c0 1 2 2 0 3-5-3-9-7-12-12h2c2 4 7 5 10 9Z" fill="#1b1513"/>
  <path d="M419 237c1 3-2 5 0 8 2 0 3-3 5-3-1 4-3 7-8 7l-1-4 2-8h2Z" fill="#86564c"/>
  <path d="M419 207v-9c2 0 5-3 7 0 1 3-1 8-3 10-2 1-3 1-4-1Z" fill="#996761"/>
  <path d="M416 245v4l-2 1c-2 0-3 3-5 2l-1-4v-2l3-1c1-1 1-3 3-3 1 1 0 3 2 3Z" fill="#271713"/>
  <path d="M213 216c-3-4-4-9-10-10l4-5c3 2 2 5 5 7l2 4-1 4Z" fill="#8e5951"/>
  <path d="M419 207c4 2 4-2 5-3 2-2 2-4 2-6 2 0 2 2 3 4 1 1 0 2-1 3l-5 5c-1 1-2 3-4 3v-6Z" fill="#89534c"/>
  <path d="m211 179 1 2c2 2 1 5 3 7v12l-1 1h-1l-2-17v-5Z" fill="#091001"/>
  <path d="M224 263c-2-1-2-4-2-6l-3-4-1-1v-1c0-1 0-3 2-3l2 2 2 4v1l1 6c1 1 1 2-1 2Z" fill="#201715"/>
  <path d="M211 209c-3-2-3-5-4-8 2-2 4 1 6 0l1 3c-5 0-1 4-3 5Z" fill="#96665c"/>
  <path d="M402 108c0-2 0-3 2-4l3 5-2 3h-1l-2-4Z" fill="#231b1a"/>
  <path d="M218 251v1c-4 0-6-2-7-5 2 0 5 6 5-1 3 1 3 3 2 5Z" fill="#6b4742"/>
  <path d="m427 204 2-2c2 2 1 4 1 6l-3 1v-5Z" fill="#693d34"/>
  <path d="M221 266c2 4 1 7 1 11l-1-11Z" fill="#1d1715"/>
  <path d="M322 388c3-2 5-1 8 0h-8Z" fill="#0f0c0b"/>
  <path d="M222 287c0 2 2 4 0 6v-6Z" fill="#201715"/>
  <path d="M421 165c-2-2-1-5-1-7l1 7Z" fill="#231b1a"/>
  <path d="M211 155c0 2 1 5-1 7l1-7Z" fill="#251f1c"/>
  <path d="M211 179v5-5Z" fill="#170f09"/>
  <path d="m406 333-5 12c-6 1-8 6-11 10-1 2-3 3-5 3-2-1-2 0-3 1 0 2-2 3-4 3l-15 6-21 9c-8 2-17 3-25 3l-18-2c-14-2-26-8-38-14-4-2-8-1-11-5l-7-6 1-1h2c11 6 24 10 36 17 3 2 6 2 9 2 7 2 14 4 21 4 5 1 11 1 16-1l19-4 23-11 12-6c5-2 9-6 12-11 2-4 5-8 5-14 1-6 0-7-6-7h-5c-2 0-4 0-4-2 0-5-4-7-6-11l1-7c1-5 3-11 3-17 0-4 8-13 13-13 0 6-2 11-4 17-2 4-2 8-1 12 0 3 2 3 4 3 4 0 8-2 10 3h1c2-3 3 0 3 1v21l-2 5ZM224 263c1-3-2-5-1-8 3 0 3 3 4 4l5 7 4 5 10 8c3 2 5 5 5 9-1 5 2 9 3 13 0 5 0 10-2 15 0 4-7 6-12 5l-3-1c-4 0-6 1-6 5 1 8 1 16 8 21 3 1 4 4 4 7-7-5-13-11-14-21l-2-9c-1-5 1-9 3-13 1-1 3-3 5-1 3 3 7 1 9-1 1-2 2-5 1-8-1-8-4-15-7-22-1-1-2-3-4-3v-1l-4-4-1-1-5-5v-1Z" fill="#251d1a"/>
  <path d="m243 92 10-10 7-5c8-7 18-10 28-13v1l-4 3c-15 5-27 15-38 28 4 1 9-2 12 1l-1 2c-6 0-11 4-16 7-4 1-4 5-8 6-3-3-1-4 0-6l10-14Z" fill="#2f2926"/>
  <path d="M288 65v-1l3-1 6-1 10-1c9-1 19 0 28 1l7 2 7 2c1 1 4 0 3 4h-2l-24-6c-11-1-22 0-33 2-2 0-3 1-5-1Z" fill="#332b28"/>
  <path d="M335 62c-10 0-19-2-29-1h-5c12-2 23-2 34 1Z" fill="#2d2421"/>
  <path d="M301 61h5c-3 2-6 1-9 1l4-1Z" fill="#2f2926"/>
  <path d="m349 66-7-2 6 1 1 1Z" fill="#2d2421"/>
  <path d="M297 62c-2 2-4 1-6 1 2-2 4-1 6-1Z" fill="#2f2926"/>
  <path d="M360 71c6 1 11 4 15 8l3 3c7 5 9 13 13 19 2 3 6 6 6 10-1 2-2 2-4 2h-1c-2-2-4-3-4-6 0-2-3-3-4-4-2-1-5-2-4-5l3-1c-4-8-9-15-18-19-2-2-4-3-5-6v-1Z" fill="#2d2421"/>
  <path d="M397 111c-2-3-5-6-6-10 6 3 8 9 11 14l11 19 1 3c1 6 4 12 3 18-2 0-2-2-2-3l-4-13-4-6-1-1-3-5-1-2c-1-3-1-5-3-7s-3-4-2-7Z" fill="#2d211f"/>
  <path d="m353 69-4-3c4 1 8 2 11 5-3 2-5 0-7-1v-1Z" fill="#2d2421"/>
  <path d="m414 137-1-3v-4c2 2 1 5 1 7Z" fill="#231b1a"/>
  <path d="M404 112h1l1 6c-2-2-2-4-2-6ZM402 108l2 4c-2-1-3-2-2-4Z" fill="#231c1a"/>
  <path d="m230 271-1 2c-1-2-4-3-4-6 3-1 3 1 5 2v2Z" fill="#1d1715"/>
  <path d="m230 269-5-2-1-3c3 0 4 3 6 5Z" fill="#201715"/>
  <path d="M230 271v-2c2 1 4 2 4 5-2 0-2-3-4-3Z" fill="#211916"/>
  <path d="M406 333c3-6-1-11 0-17 0-3 2-7 0-10-2 0 0 2-1 3l-1-1c0-4-3-4-6-4h-6c-2 1-3 0-4-3-3-10 6-17 5-27l2-3c-1-2 1-2 1-3l4-4 2-4 1-1c1 0 1-2 3-1 0 2 1 5-2 7-5 5-5 12-6 18l-2 5c-2 3-2 4 2 5 2 1 4 3 7 2 4-1 4 3 6 5l-2 28c0 2-1 4-3 5Z" fill="#221916"/>
  <path d="M411 300c-1 0-2 1-2-1-1-2-2-6-5-2-1 1-11-4-11-5v-3c5-4 4-10 5-15 1-3 2-7 6-9-4 6 0 12-1 17 0 2 2 4 3 4 6 0 5 5 5 9v5Z" fill="#1e1613"/>
  <path d="m406 258-3 2c0-5 2-9 6-12v4l-3 6Z" fill="#281b13"/>
  <path d="M406 132c5 1 6 5 7 9l4 14-1 4 1 19c-3-1-2-3-2-5-3-13-3-26-10-38l1-3Z" fill="#372421"/>
  <path d="M243 92c-1 5-6 9-8 13-1 2-3 3-2 6 1 1 0 2-1 2-2 1-3 5-6 4 0-7 6-10 9-16l1-3c4 0 4-5 7-6Z" fill="#29221e"/>
  <path d="m226 117 5-4c2 1 3-3 5-1 1 3-3 4-4 6v1l-3 5-3 5-2 4v1c-2 2-1 4-2 5-1 2-1 5-4 5-2-4 1-6 1-9s2-5 3-7c2-2 2-4 2-7v-1l2-3Z" fill="#352522"/>
  <path d="M224 121c2 1 2 3 1 5l-5 8c-1 1-1 3-3 2v-1c0-2-1-4 1-5 1-2 3-4 3-7 1-1 1-2 3-2Z" fill="#2c201b"/>
  <path d="M224 121c-2 1-2 3-2 5l-4 4c1-4 1-8 6-10v1ZM217 135v1c1 5 0 9-3 11l1-5 2-7Z" fill="#231d19"/>
  <path d="M427 204c4 2-1 3 0 5-3 2-4 5-5 8l-3 19v1h-1v-5c2-6 1-13 1-19 3-3 4-7 8-9Z" fill="#6c392f"/>
  <path d="M406 135c5 6 6 12 7 19l4 24v10c-3 0-2-2-2-4-1-2-1-5-3-6l-1-3-6-35v-4l1-1Z" fill="#432b26"/>
  <path d="M413 177c4 3 1 8 4 11l1 19-4 22c0 1 0 4-2 3-2-5 0-11 0-16l2-16c1-5 1-11-2-15v-5l1-3Z" fill="#4f3229"/>
  <path d="M412 232c3-7 3-15 5-23l1-2c0 10-2 19-5 28l-2 10-2 1v-8c1-2 1-5 3-6Z" fill="#3c291d"/>
  <path d="M418 232v5l-2 8c-5 1-2-2-2-3s2-2 1-5c-2-2 2-3 3-5Z" fill="#28150b"/>
  <path d="m218 251-2-5v-2c0-5-3-10-2-15v-9c3 0 2 3 3 5 2 8 3 17 6 25v4c-2-1-2-4-3-5l-2 2Z" fill="#291b12"/>
  <path d="M214 220v9c-2-4 0-9-1-13v-4c-1-3-2-5 0-8v-3h1c3 1 1 3 1 5v7c0 3 1 5-1 7Z" fill="#3c190d"/>
  <path d="M214 188c-3-2-2-4-2-7h1c2 0 1-2 2-3l2-1c5 1 10-1 14-2l5 1v2c-8 3-12 9-13 17 0 2 0 3-2 3v-2c-1 2 1 3 1 5v10c-2 4 1 8-1 12-2 1-2-1-3-2l-3-10a346 346 0 0 0-1-23Z" fill="#456921"/>
  <path d="m217 178-2 1h-2v-3l1-17c3 1 1 3 1 6 1-6-2-11 1-15l2-5v-1c2-2 3-4 3-7l2-4c2 4 0 7-1 11l-3 33-2 1Z" fill="#402a20"/>
  <path d="m217 149-1 17c-2-3 0-5-2-7l-1-1 1-9v-2c2-3 3-7 3-11l3-2-2 10-1 5Z" fill="#31231d"/>
  <path d="M214 158v1c0 6 1 11-1 17v-16c-1-1-1-2 1-2Z" fill="#251f1c"/>
  <path d="m214 158-1 2c-2-4 0-7 1-11v9Z" fill="#231d19"/>
  <path d="M213 179h2v2h-2v-2Z" fill="#50692c"/>
  <path d="M422 199v5h-1c-1-2 0-3 1-5Z" fill="#ae7770"/>
  <path d="m410 238-1 8v2l-6 12-2 3-5 4-2-1v-1c8-6 10-14 13-23 1-1 0-4 3-4Z" fill="#543328"/>
  <path d="M213 204v8l-2-3-1-3v-3c1-1 2 2 3 1Z" fill="#b0776d"/>
  <path d="M214 188c2 2 2 4 2 6v18l-1-2-1-5c0-1 2-3 0-4v-13Z" fill="#2f2a1c"/>
  <path d="m223 254-7-29v-6c3-1 2 2 3 4 2 12 3 24 9 35l8 8 5 2h2l3 1v1c-4 3-7 2-11 0l-4-3-8-12v-1Z" fill="#54382c"/>
  <path d="M243 353c-2-6-9-9-11-15l-2-15c0-4 5-6 9-4h7c3 0 5-1 6-5 1-8 1-14-2-21l-1-3c1-5 0-9-5-10-4-2-6-6-9-9 6 0 11 1 16 3 4 1 3 5 4 7v6l2 7v21c0 5 0 9-4 12l-6 3c-4 0-5 3-5 6 1 8 4 14 12 17 10 4 21 8 30 14 3 1 6 1 8 3l-1 2c-3 1-6 0-8-1-9-4-17-10-27-13l-13-5ZM291 372l1-1c5-1 10 1 15 1l8 1c17-1 34-5 49-14 3-3 8-5 12-6l7-4c3-2 5-4 5-8v-2c4-4 2-6-2-8-2-1-3-2-3-4-1-3-3-4-5-5-3-2-3-4-2-6 0-3 0-6 2-8h1c2 3 7 5 6 11 0 0 1 2 2 1 2-2 5 0 7 0 5-1 8 1 7 7-1 5-2 10-5 15-5 9-13 11-21 16l-22 11c-5 2-11 5-18 5-6 0-12 4-19 3-9-1-17-1-25-5Z" fill="#29201d"/>
  <path d="M379 308h-1c-4-3-3-7-3-11l1-8v-2c1-5 1-9 4-14 1-2 2-3 4-3 3 1 6 0 8-1s3-2 5-1l-2 3c-4 1-6 5-8 7-3 3-4 6-4 10 1 5-2 9-3 14l-1 6Z" fill="#2a211e"/>
  <path d="M254 287c-3-3 1-7-2-10l-2-3-15-3-4-4c5 2 9 6 15 3 5-2 10-4 14-8h10c3 0 7-1 10 1-1 3-4 2-6 2-4 1-7 0-10 3-3 2-4 4-3 7-4 1-5 4-5 8 0 2 0 3-2 4Z" fill="#302821"/>
  <path d="m288 65 22-3c9-1 18 1 27 3l14 4c5 3 5 3 4 7l-15-6c-14-3-28-6-42-3-3 1-6 0-9 2-13 2-23 10-32 19l-2 1c-1 1-3 3-2 5 0 2 3 0 5 1h23c2 0 4-1 5 2-3 2-7 1-11 1l-6 1c-4-1-8 1-11-2h-14c12-15 26-26 44-32Z" fill="#3f3734"/>
  <path d="M258 97h11l18 1c7 0 13-1 19 2 0 2-1 1-2 2 2 0 5-2 7 0v2h-21l-14-1h-2c-11 0-21 0-31 5-4 0-4-1-3-3 5-4 11-7 18-8Z" fill="#26160f"/>
  <path d="M240 105c-1 3 1 2 2 2l-1 3-3 2h-2c-2-1-3 3-5 1l2-2c3-1 3-6 7-6Z" fill="#2d1d17"/>
  <path d="m356 75-5-6h2c6 3 11 8 17 12 3 2 6 5 7 8 3 5 1 7-4 7h-7l-1-1 1-2 5-1-3-6c-1-3-3-5-6-6l-4-2c-1-1-3-1-2-3Z" fill="#3a322e"/>
  <path d="m388 107 4 5c2 6 5 11 2 17-1 4-2 9-1 14l-2 21-2 1c-2-1-3-2-3-4 1-6 2-13 1-19l1-24c0-6-2-9-7-11l-7-3-4-1c-2 0-4 0-5-2v-1l5-1c4 0 7 2 11 3 3 1 5 2 7 5Z" fill="#985d4f"/>
  <path d="M391 164v-13l1-20c2-5 1-10 0-15v-4h1c4 2 6 5 7 9l-4 16c-1 3 1 5 1 8l-2 17c0 2-1 5-4 2Z" fill="#94594c"/>
  <path d="M388 107c-3 0-4-3-7-4-4-3-8-5-12-3l-17 1-23 2-8-1-4-1c0-2 2-2 4-2l6-1 10-1 12-1c9-2 18 0 27 0l4 2c1 4 7 4 9 8l-1 1Z" fill="#211510"/>
  <path d="m380 98-3-1c-1-1-4 1-4-2 2 0 4 1 4-1 1-2 0-4-1-5-5-7-12-11-18-16l-5-4 7 2c2 3 5 6 8 7 7 3 10 9 14 15l1 1c0 1 3 2 2 4s-3-1-5 0Z" fill="#332b28"/>
  <path d="M399 121c-1-4-4-6-6-9l4-1c0 5 6 8 6 14l-1 1c-3-1-2-4-3-5Z" fill="#372421"/>
  <path d="M402 125h1l1 2 2 5v3h-1c-2-1-2-3-3-5v-5Z" fill="#432b26"/>
  <path d="m406 132-2-5c2 1 2 3 2 5Z" fill="#372421"/>
  <path d="M397 268c-5 2-9 6-14 3-2 0-1 1-1 2-3 4-5 9-4 14l-1 1c-2-2-2-5-2-7-1-4-2-5-6-2l-3-1v-2l1-1c4-5 4-7-2-10l-2-1v-2l2-1 6 2c8 5 16 6 25 3l5-3v1l-4 4Z" fill="#2e2522"/>
  <path d="M401 264v-1l2-3-2 4Z" fill="#2a211e"/>
  <path d="m224 133 1-4c3 0 3 2 3 4 2 10 4 21 3 32 0 3 1 5 3 7-2 4-6 3-9 4l-2-2c-1-9-3-18-2-28l3-13Z" fill="#864f40"/>
  <path d="M231 119v-1l2-1 3 2 1 2c1 13 6 25 4 38l-1 6-3 1c-3-3-4-8-4-12 0-8 0-16-2-24v-11Z" fill="#945b4c"/>
  <path d="M231 119c2 2 5 4 1 8-1 1 1 4 1 5 2 8 1 15 1 22 0 4 2 8 4 12v1l-1 1c-2 0-4 1-6-1v-19l-3-15v-9c0-2 1-4 3-5Z" fill="#905747"/>
  <path d="M224 133c-1 9-3 18-2 27l1 5c2 1 2 3 1 4 0 2-1 4 1 6-1 5-4 2-7 2v-4c2-13 2-27 5-40h1Z" fill="#774739"/>
  <path d="M228 124c4 14 5 29 4 44l4 1-1 2h-1c-3 1-4 1-4-3 0-11 0-23-3-33-1-2 1-5-2-6 0-2 2-3 3-5Z" fill="#8a5344"/>
  <path d="M233 118h-2l5-6 2-1v4c-1 2-2 3-5 3Z" fill="#91584c"/>
  <path d="M405 135h1l5 35 1 5-3 1c-2-1-4-2-5-5 3-5 1-10 2-15l-2-15c0-2-1-4 1-6Z" fill="#7a483c"/>
  <path d="M409 175h3l1 2v3l-16-5c-1-1-2-2-1-3 5-1 9 1 13 3Z" fill="#4f6827"/>
  <path d="M410 238c-2 1 0 4-2 5-1-1-2-3-1-5v-8c2-5 3-9 1-14v-1l1-4v-8c0-2-1-4 1-6 3 0 3 2 3 4l-1 7c2-3-1-7 3-9l-3 33-2 6Z" fill="#613d2b"/>
  <path d="M398 174c5 2 11 3 15 6v1c-1 2-3 2-6 1l3 4c-1 4-4 3-6 2s-2-4-3-6l-3-4v-4Z" fill="#486d24"/>
  <path d="M415 199c-2 3-1 7-3 10-1-4 2-9-2-12-3-4-1-7 0-11 0-1 1-2 3-2 4 5 3 10 2 15Z" fill="#673b2f"/>
  <path d="m413 184-2 2h-2l-3-2v-3h3c1 2 3 1 4 0v3Z" fill="#406e1e"/>
  <path d="M216 219v6c-2-1 0-4-2-5v-7c3 1 2 4 2 6Z" fill="#2f2a1c"/>
  <path d="M216 219c-2-2 0-4-2-6v-8c2 2 0 5 2 7l5 11c2 1 2 3 2 4l-1 1c-4 0-4-2-3-5l-3-4Z" fill="#563a22"/>
  <path d="M221 212v-14c2-5 2-11 6-15 2-3 5-5 8-6l1 1c-1 3-4 4-6 6s-3 4-3 7c1 5-3 9-1 14 0 3 1 5-1 8h-3l-1-1Z" fill="#7a5e52"/>
  <path d="M236 176h-5c0-4 4-2 5-4l4-2 2 1c1 1 1 0 1-1 3-2 7-1 9-2h10c2 2 6-1 7 3-5 2-10-1-15 1 2 1 6-2 9 1-4 3-9 1-14 2-1 0-3-1-5 1v1h-3c-2 0-3 1-5-1Z" fill="#486c23"/>
  <path d="M221 212h1c2 4 4 8 4 12l-2 3h-2l-1-4c1-4-2-7 0-11Z" fill="#567033"/>
  <path d="M236 172c0 3-4 1-5 4l-12 3-2-1 1-1c3 0 5 1 7-2 4 0 7-1 9-4h1l1 1Z" fill="#50692c"/>
  <path d="M236 176h6c0 2-1 2-2 3l-5-1v-1l1-1Z" fill="#7e7a62"/>
  <path d="M221 198v2l-1-5c2 1 1 2 1 3Z" fill="#3e601f"/>
  <path d="M217 149c0-2-1-4 1-5 0 2 1 4-1 5Z" fill="#352522"/>
  <path d="M408 229c2 5 0 9 0 14-3 7-4 15-10 20l-4 2v-1c-1-2 2-3 3-5 3-4 5-8 6-13 2-3 2-8 3-12l1-5h1Z" fill="#714436"/>
  <path d="M396 266c-4 4-10 4-15 2-4-1-8-1-10-4l-6-2v-1c5-2 8 1 12 2h2l6 3h11Z" fill="#473833"/>
  <path d="m394 266-4 1c0-2 1-2 2-3l2 1v1Z" fill="#714436"/>
  <path d="M246 269h-3c-3-1-4-5-6-7l-1-1-1-3-1-1c-1-3 0-5 3-4h13l8 1c5 0 10-2 15-4 1-1 3-2 5-1v2l-4 3-10 4c-5 1-10-1-15-1-2 0-6-2-7 1-1 2 1 5 2 7l3 3-1 1Z" fill="#925f50"/>
  <path d="M219 223c0 2 0 5 3 5l2 1v10l3 12c1 2 3 5 1 8-5-6-6-13-8-20-1-4 0-8-2-12l1-4Z" fill="#633930"/>
  <path d="M241 269c-2 0-4 0-5-2-7-7-10-15-11-24 1-1 2-2 3-1 2 2 6 4 7 7-1 2-3 1-4 1 1 6 5 11 9 16 0 1 2 1 1 3Z" fill="#844f41"/>
  <path d="M226 243c0 6 3 12 6 17l4 7c-4-1-6-5-8-8-2-7-5-13-5-20h1c2 1 1 3 2 4Z" fill="#734337"/>
  <path d="m246 269 1-1c3-3 7-6 12-7l1 2c-2 3-11 8-14 7v-1Z" fill="#403228"/>
  <path d="m241 269-2-2c0-2-3-3-2-6 3 2 3 6 6 8h-2Z" fill="#905a4e"/>
  <path d="M369 278c0-2 2-3 3-3 2 1 4 2 4 4l1 9c-1 3-2 7-1 11l-1 1v7c-1 4-4 7-2 11v1l1 6c0 3 1 5 3 8 5 4 5 6 1 12-2 3-2 6-5 9-10 5-19 11-30 14-15 4-31 7-46 3-13-4-26-10-38-17l-2-2c0-5-4-7-7-9l-2-3c-2-3-1-5 3-5 7-1 9-4 8-11l-1-17-2-13-2-7c1-2 2-5 1-7 0-6 3-5 6-4 2 0 3 1 2 3-6 5-7 7-3 14 8 14 7 28 6 42-1 11 3 19 14 24 9 4 18 6 27 7 7 1 15 0 22-1h7c4 1 8-2 11-4l6-1 12-7 2-1c1-6 6-11 3-17-4-9-2-19 0-29l3-18c1-4 0-8-4-10Z" fill="#302724"/>
  <path d="M372 319v-1c1-1 0-3 2-3 0 3 2 0 3 1 0 2-2 4 1 5l10 11c2 1 2 2 2 4-3 4-1 10-6 14 0 1-1 2-3 2-12 4-22 12-34 16-10 4-21 6-32 6l-8-1-15-2c-6-1-11-5-17-8l-27-12c-3-1-3-4-4-6l-3-9c-1-5 0-7 6-7 3 0 7-4 8-8 2-7 1-14 1-22v-5c4 9 4 17 3 27v2c5 4 0 8-1 12-1 3-4 1-6 1s-3-1-4 1c-1 1 0 3 1 4 2 1 3 3 5 3 3 1 5 2 4 6-1 2 1 2 2 2 10 8 21 12 33 16 7 2 14 3 22 3 11-1 22-2 33-6 9-3 16-10 25-12 5-3 10-7 10-14 0-3 0-4-2-5-4-2-6-5-6-9l-3-6Z" fill="#2c2421"/>
  <path d="M384 350c3-3 2-7 3-11 3-4 2-6-2-9-3-2-7-4-7-9 3 0 5 2 6 4 1 4 2 5 5 6 3 2 6 4 1 7l-1 4c0 3-1 6-5 8ZM377 316c-1 0-3 3-3-1v-10l1-5v-1c-1-1 0-2 1-2 1 4 0 8 2 11l-1 8Z" fill="#2b2220"/>
  <path d="M307 373c3 0 6-1 8 1-3-1-6 1-8-1Z" fill="#29201d"/>
  <path d="m376 297-1 2c-1-4 0-8 2-11l-1 9Z" fill="#2e2522"/>
  <path d="m260 263-1-1c0-3 3-2 4-3 7-2 14-2 21 0l7 1 5 1h5l3 1 6 1 18-3h6c1 0 3 2 4 0l1-1h5c1 1 3 2 2 4l-3 1-20 3c-11 1-21 0-32-2-8-1-16-4-24-3l-5 1h-2Z" fill="#4a423d"/>
  <path d="M266 262c3-2 6-1 9-1l27 4c7 2 14 1 21 1v1c-4 3-8 2-12 2l-15-2-12-1-4-2c-3-2-7-1-10-1l-4-1Z" fill="#483c3c"/>
  <path d="m280 264 4 1c-5 3-10 1-15 2-2 1-4 2-3 5v5c0 2-1 2-2 2h-1l-2-3c1-2-4-3-2-5 3-3 5-6 9-7h12Z" fill="#281f1b"/>
  <path d="m266 262 4 1h-8l4-1Z" fill="#403228"/>
  <path d="M286 97c-2-2-4-1-7-1h-23c-1-3-2-6 0-9 9-9 19-17 32-19l1 1c0 2 0 4-3 4l-5 1c-3 0-6 3-8 6-3 4-8 6-10 11h6c5-2 10-1 14 0l18 3 24 1c3 0 6-1 8 1v1c-7 2-14 1-20 3-4 1-8-1-11-1-6-1-11 1-16-2Z" fill="#463f3c"/>
  <path d="M366 94h-1c-2 2-4 1-7 1-4-6-7-12-13-17-8-8-18-10-28-10-8-1-16-1-24 1l-5-1c7-3 15-4 22-4 13 1 25 2 37 7l9 4 2 2 8 13v4Z" fill="#463d3b"/>
  <path d="M286 97a190 190 0 0 0 51 0v1l-10 1c-7 0-13 3-19 2h-2l-12-2c-8 1-15-1-23-1l-2-1h17Z" fill="#2f2926"/>
  <path d="M256 87c-1 3 2 6 0 9h-3c-3 0-4-1-2-4l5-5Z" fill="#413a39"/>
  <path d="M274 102h1v3c0 2-3 3-5 4-6 1-10 5-10 11-1 11-2 22 1 33l4 4c1 1 3 1 3 3l-4 1h-2l-5-1-2-2c-3-2-3-5-2-8 2-4 2-8 2-12v-23c0-7 4-10 10-12l9-1Z" fill="#ab7264"/>
  <path d="M274 102c-3 2-6 2-9 2-3 2-7 1-10 2a29 29 0 0 0-5 1c-3 0-6 4-10 2l2-2c10-5 21-6 32-5ZM275 104v-2c9-1 19 2 29 1h7l1 1-1 1h-31c-2 0-4 1-5-1Z" fill="#865448"/>
  <path d="M306 101h1c2 0 5-2 7 1h-11c1-2 2-1 3-1Z" fill="#1a100a"/>
  <path d="M311 102h3c2-2 5 0 7 0l1 1c-3 3-6 2-10 0h-1v-1Z" fill="#372722"/>
  <path d="M240 109c4 0 6-3 10-3l-1 2c-6 6-5 14-5 21v21l1 7v1c-1 2-3 3-5 2 2-13-3-24-4-37 0-1 1-3-1-4l2-4 1-4 2-2Z" fill="#9a6050"/>
  <path d="M366 94c0-3-1-4-3-6-3-3-4-7-5-11l4 2c3 2 6 4 7 7 2 1 4 4 3 6s-4 2-6 2Z" fill="#403735"/>
  <path d="M337 98v-1l5-2h2l8-1h1l12 1h8c1 2 3 0 4 2-13-3-27 0-40 1Z" fill="#2d2421"/>
  <path d="m369 86-7-7c3 1 7 2 7 7Z" fill="#3f3734"/>
  <path d="M365 95h-13c1-3 4-2 6-1h7v1Z" fill="#403735"/>
  <path d="m386 161 3 3c2 1 4 3 3 5l-2 2-5-1c-3-3-8-1-12-2l-5 1h-11c-3 1-7 0-10 2l-1 1-4 2-3 1-1-1c-1 0-2-1-2-3 0-3 2-6 5-7l4-3 5-2 4-1 6-1 13-1 7 1c3 1 5 2 6 4Z" fill="#392c25"/>
  <path d="m386 161-5-3 1-3v-37c-1-3 0-7-3-9-1-1-2-2-1-3h3c6 1 8 4 8 9l-1 25v17c0 1 1 4-2 4Z" fill="#9c6153"/>
  <path d="m392 169-3-5h2c4 2 4-2 4-3v-11l1-24c1-2 4-3 3-5l3 4 1 5-1 21c0 5 0 10-2 15l-1 6h-4c-2 0-3-1-3-3Z" fill="#8f5647"/>
  <path d="m383 156-2 2-8-1 1-2c2-9 3-18 0-27l-1-12c0-4-1-7-4-9-3-3-7-3-10-5l1-2 5 1 5 1 3 2c4 4 6 8 7 14 1 11 4 22 1 34l2 4Z" fill="#a56b5d"/>
  <path d="M383 156c-3-1-4-3-3-7 2-5 2-12 0-18l-2-14c0-4-2-7-5-10l-1-3 2-1c2 1 5 1 7 3-1 0-4 0-1 2s3 5 3 9l1 22c-1 5-2 11-1 17Z" fill="#a06759"/>
  <path d="M370 99c5-2 8 0 11 4l-11-3v-1Z" fill="#23110a"/>
  <path d="M370 99v1h-5l-6 1c-3 1-5 1-7-1 6-2 12-1 18-1Z" fill="#472c29"/>
  <path d="m374 103-2 1-2-2 4 1Z" fill="#9c6153"/>
  <path d="M359 100h6v1h-6v-1Z" fill="#a06759"/>
  <path d="M359 100v1l-2 1-10 1-12 1h-3l-8 1h-4c-3 0-6 1-8-1v-1c3 0 7 1 10-1h7a17853 17853 0 0 1 30-2Z" fill="#a56b5d"/>
  <path d="M321 102h-7c-2-2-5-1-7-1 7-2 13-2 20-2-3 2-6 0-9 1 1 2 2 1 3 1v1Z" fill="#26160f"/>
  <path d="M321 102v-1c3 0 5-1 8 1h-8Z" fill="#260c05"/>
  <path d="m399 167 2-16v-6c0-5-1-10 2-15l2 5 2 22-4 6c-1 2-1 4-4 4Z" fill="#874f41"/>
  <path d="M369 278c4 0 7 3 6 9l-4 19c-1 10-4 20 1 30v6c-2 2-3 5-3 8 0 1 0 2-2 3l-14 8-1-1c1-3 4-4 6-5l4-5c2-7 2-14 1-20-1-7 1-15 3-22l4-17c1-5 1-9-4-12v-1h3Z" fill="#332b28"/>
  <path d="m364 263 5 2c4 6 4 6-3 11-2-2-1-5-2-6l-1-2-1-4 2-1Z" fill="#271f19"/>
  <path d="M343 263h3c6-3 12-4 18-3l1 1v1h-2c-3 2-7 2-10 3h-10v-2Z" fill="#392d2e"/>
  <path d="m353 264 10-2 1 1-1 1c-2 2-5 1-7 2l-2-1-1-1Z" fill="#2f2222"/>
  <path d="M366 278v1l-2 1-1-2c-1-1 0-2 1-2h2v2Z" fill="#382718"/>
  <path d="M240 160c1-1 3 0 4-2 2 1 3-1 5 1v1l-7 4h-3c-1-2 0-3 1-4Z" fill="#965e53"/>
  <path d="m239 164 3-1c0 3-1 4-4 4v-1l1-2Z" fill="#552f25"/>
  <path d="m237 115-2 4-2-1 4-3Z" fill="#905747"/>
  <path d="m238 167 4-4c2-2 4-3 7-3 4-3 9 0 13 0h2l5 1v1c-4 2-8 1-12 1s-8 1-12 4c3 0 6-2 7 2-3 2-6 0-9 2h-3l-4 1-1-1 1-2c-1-1 0-1 1-2h1Z" fill="#35271f"/>
  <path d="m237 167-1 2c-2 0-3 1-4-1l5-1Z" fill="#8b5653"/>
  <path d="m399 167 4-6c0-2 2-4 4-4 0 3-1 5 1 8 1 2-2 4-3 6-2 2-4 1-6 0 0-1-4-3 0-4Z" fill="#864e3e"/>
  <path d="M399 171h6l4 4-13-3h-1v-1h4Z" fill="#7d5135"/>
  <path d="M395 172h1l2 2v3h-3l-5-2a30 30 0 0 1-6 0l-5-2-8-1c-2 0-5 1-7-1 0-2 1-2 3-2l8-1h9l2 1 4 1 5 2Z" fill="#4c6d29"/>
  <path d="M409 186h2c-2 4-1 7-1 11a119419 119419 0 0 1-1 6c-2-3-2-7-3-10 0 4 2 7 0 11h-1c-2-2-1-4-1-6l-1-9 1-1c1-2 5 2 5-2Z" fill="#4f6929"/>
  <path d="M406 204v-12c1 4 3 7 3 11l1 9-1 3c-3 1-3-1-3-2 1-2 1-4-1-5l1-4Z" fill="#43681c"/>
  <path d="M406 208c4-1 1 2 2 3 0 1-2 3 1 4v1l-1 1-2 6c-1 2-2 4-4 3-2-2 0-4 1-6 0-2 2-5 1-8v-2l2-2Z" fill="#4b6925"/>
  <path d="M408 216h1c1 4 3 9-1 13l-2-5 2-8Z" fill="#714436"/>
  <path d="M410 212c-2-3-1-6-1-9h1v9Z" fill="#4b6925"/>
  <path d="m395 176 3 1c1 1 3 3 3 5h-2l-4-4v-2ZM404 188v1h-2c-1-2-2-4-1-7 2 1 2 4 3 6Z" fill="#425322"/>
  <path d="m223 229-1-1v-1h2l5 4 7 6 3 1-1 3h-1l-5-2-3-3c-2-2-6-3-6-7Z" fill="#584e2f"/>
  <path d="M225 205c-2-6 1-19 5-22 2-1 3 1 4 3 1 3 3 3 6 1l9-5 3-1 13-1c3 0 5-1 7-3l5 1c2 2 5 1 5 4l-2 1c-9-2-17 2-25 2h-2c-8 3-16 7-22 14l-2 2-3 4h-1Z" fill="#8a5c52"/>
  <path d="M240 188c-3 3-6 2-8-2l-2-3 5-5h5c3-1 3 1 1 2-2 2-2 5-1 8Z" fill="#8d6156"/>
  <path d="M225 224c-1-4-4-8-3-12l2 1c2 3 5 0 8 0v9c-1 2-3 3-5 3-1 1-1 0-2-1Z" fill="#8e796f"/>
  <path d="M231 213c-4 5-4 5-7 0l1-8h1c1 4 5 3 7 4 1 2 0 3-2 4Z" fill="#755854"/>
  <path d="M252 169c-1-2-3-1-5-1-1 0-3 1-3-1l2-3 12-2c4 0 8 1 11-1s6-1 9 0l7 2 1 1v3c0 2 1 2 2 3l-1 3-1 1h-7c-3 0-5-1-8-3-2-3-6-1-9-2h-10Z" fill="#372b23"/>
  <path d="m252 182-3 1c-3 1-5 2-4-3 1-2-2-2-1-4v-1h2c5 0 11-1 17 1 2 3 0 4-3 4l-8 2Z" fill="#976b60"/>
  <path d="m272 171 7 2 7 2 4 3 3 3c0 1 2 1 1 3l-2 2-8-6c-2-1-3-3-5-3-2-2-3-3-6-3h-8l-2-1c-3-2-7 0-11-2h20Z" fill="#557d2b"/>
  <path d="M244 176c1 2 6 2 2 6-1 1 2 1 3 1l-9 5c-4-3-2-5 0-8 0-1 3-1 0-2l2-2h2Z" fill="#93685a"/>
  <path d="M263 173h2v1l-1 1h-15l-1-1c5-2 10 0 15-1Z" fill="#425727"/>
  <path d="M272 171h-3c-2-2-5 0-7-2 3 1 7-2 10 2Z" fill="#2d3510"/>
  <path d="M240 171h3s2 0 1 1l-4-1Z" fill="#4e6e38"/>
  <path d="M245 175h-1c1-2 3 0 4-1v1h-3Z" fill="#2e4b0b"/>
  <path d="M225 224a116 116 0 0 0 3 2l2 3-2 3c-2-1-4-2-4-5l1-3Z" fill="#59723a"/>
  <path d="M406 224c3 1 2 3 2 5-2 4-1 8-2 12 0 2-1 5-3 6v-5c-3 4-7 5-11 6h-3c-1-2 0-3 1-4l4-3c3-3 4-6 5-9 2-4 4-6 7-8Z" fill="#7c4a3b"/>
  <path d="M395 241c-1 3-4 3-6 7 5-1 9-2 12-5 1-1 1-4 3-3 2 2 0 3 0 5l-1 2c1 6-3 9-6 14-1 1-3 2-3 4h-2c-1-2 0-3 1-4l6-12-6 2-2 1h-2c-6-2-6-2-1-8l5-4 2 1Z" fill="#814e3f"/>
  <path d="M379 264h-2c-3-2-7-2-9-5 0-1-2-3-1-5l19-1c3 0 5 4 3 6s-1 5-2 7h-2c-2 1-4-1-6-2Z" fill="#a16d61"/>
  <path d="M385 266h1c3-3 5-7 6-12 1-1 0-2-1-3l1-1c2 0 5-3 7-1 1 2-2 4-2 6l-3 6-2 4-2 2h-5v-1Z" fill="#8e5b4d"/>
  <path d="M369 259c2 3 6 2 8 5l-12-3c-1-1-5 0-4-3 3-1 6-1 8 1Z" fill="#51423e"/>
  <path d="M385 266v1c-3 0-5-1-6-3l6 2Z" fill="#986255"/>
  <path d="M237 261c0 2 3 4 2 6-4-6-9-12-11-20 3 1 5 3 7 2h3l6 1v-1c0 1 0 1 0 0h-2l-2-2c0-1-1-2 1-2l20 2 8-2 10-7c2-1 3-3 5-2 1 3-2 5-3 7-1 1-3 1-2 4v1l-1 1-12 5-8 1-8-1h-10l-2-1c-1 1-3-2-4 0-2 1 0 3 1 5l2 3Z" fill="#8a5748"/>
  <path d="M292 261c-4 1-8 0-12-1-7-2-14 0-21 2-5 1-8 5-12 6-6-1-5-7-7-11-1-2 1-2 2-2 4-1 8 1 12 1l10 1h1l16-1 8 1 3 2 1 1-1 1Z" fill="#9e6b5e"/>
  <path d="M289 258c-3-1-6 2-8-1 2-2 3-5 3-7l-6 2-1-1 1-2 1-1 9-8c3-1 3 1 3 3l-2 6c0 3 2 6 0 9Z" fill="#a06a5c"/>
  <path d="m235 258-2-3c0-1-2-3 0-4 1-1 2 1 3 1l4 2-5-1v5Z" fill="#905a4e"/>
  <path d="m264 257 10-4v1c-2 4-6 4-10 3Z" fill="#9e6b5e"/>
  <path d="M250 254c3 0 6-1 8 1-3 0-6 1-8-1ZM237 261l-2-3c2 0 2 2 2 3Z" fill="#905a4e"/>
  <path d="M277 251h1c0 3-2 3-4 2l3-2Z" fill="#9e6b5e"/>
  <path d="m223 229 6 7c-2 1-4 0-5 3h-1c1-3-3-7 0-10Z" fill="#774a3d"/>
  <path d="m224 239 1-4c1 0 2 2 4 1l3 2c0 2 1 3 3 4l6 5 1 1c0 5-3 2-5 2l-2-1c-3-2-5-5-9-6l-2-4Z" fill="#7f4b3d"/>
  <path d="M263 279h1c1 2-1 3-2 4-2 1-2 4-1 6l3 7c8 10 7 23 8 35 0 6-1 12 1 18 1 2 1 4 3 5 8 4 16 9 25 9 10 1 20 2 30 0h5l3-1 2 1c0 3-2 2-4 3l-20 1h-17c-11-3-21-5-29-12-6-5-7-12-7-19v-32l-3-6c-3-4-3-8-4-11-2-3 2-7 6-8Z" fill="#342c29"/>
  <path d="M372 319c3 1 4 3 4 7 0 3 2 6 6 7 2 0 3 1 3 3 1 7-4 14-12 17 2-4 3-8 6-11 2-2 1-5-1-7-4-3-6-7-5-12l-1-4ZM374 307v8l-2 3c-2-4 1-7 2-11Z" fill="#2e2522"/>
  <path d="m337 366 4-3c1-2 2-2 4-2l2 1c-3 2-6 5-10 4Z" fill="#332b28"/>
  <path d="M347 362h-2v-2c3-1 5-2 8 0v1l-6 1Z" fill="#342c29"/>
  <path d="M375 300c0 2 1 4-1 5-1-2-2-4 1-5Z" fill="#2e2522"/>
  <path d="m304 263-3-1c-1-1-4-1-3-3 4-2 7 0 10 0 6 1 12 1 17-1 1-1 2-1 2-3h-8l-16-1c-3 0-6 0-4 4l-1 1c-5 0-6-4-7-8 0-3 1-4 4-3 11 3 23 4 34 1 2 0 4-2 6 1 2 2 0 4 0 6l-4 4-2 1c-6 0-12 4-19 3l-6-1Z" fill="#6a3a2b"/>
  <path d="M338 260v1h-6v-2c5-3 6-8 5-13 0-4-3-7-6-10h-4v5l1 2c1 2 0 3-2 3l-5-6c-1-1-3-2-2-3 4-1 4-6 7-8 3-1 2-2 2-4l1-1c1-1 2 0 2 1 3 2 4 5 6 8l5 7c1 1 3 2 2 4h-3c1 6 2 12-3 16Z" fill="#a06858"/>
  <path d="M330 260c1-3 4-4 4-8 1-3 0-4-3-2-11 4-22 1-33 1l-2-1c-1 0-2-3-3-1-2 1-1 3 0 4 1 2 2 5 5 6 1 1 3 1 3 3h-5l-3-3c-3-3-4-7-3-10 0-5 3-6 6-3 3 2 6 3 10 3h13c4 0 8-1 11-3 5-2 7-1 7 5 0 4-2 7-5 9h-2Z" fill="#734131"/>
  <path d="M338 260h-1c6-6 3-12 2-18l5 2c2 0 4 1 4 3l-1 1h-3c1 5 1 5 14 8 0-1-2-2-1-3l1-1 9 3 2 4-8-1-1 1h-5l-3 1h-14Z" fill="#a16e61"/>
  <path d="m344 260 8-1h5l3-1h1l4 3-19 2-2-3Z" fill="#463e3b"/>
  <path d="M343 263v1l-4 2-11 1-5-1 20-3Z" fill="#483c3c"/>
  <path d="m294 260 2 2-4-1 1-1h1Z" fill="#925f50"/>
  <path d="M304 263c2 0 4-1 6 1-2 0-4 1-6-1ZM334 261h4c-1 2-3 1-4 0Z" fill="#483c3c"/>
  <path d="M330 260h2v1c-1 2-2 0-3 0l1-1Z" fill="#7e5449"/>
  <path d="M323 266h5c1 1 4-1 3 2-2 2-4 2-6 2h-2l-14 2c-3 1-6-1-9-2l-1-1c-1 0 1-1-1-1l-2-1v-1l14 2c5 0 9 1 13-2Z" fill="#331e17"/>
  <path d="M296 266v1l-2 2-2-1h-1c-2-2-6 1-7-3l12 1Z" fill="#281f1b"/>
  <path d="M336 364h-1c-3-2-6 1-9 1h-10c-3-2-6-1-8-1h-2l-5-2c-3 0-6-2-8-5-3-3-7-4-10-8-3-3-4-6-4-10 2-11-2-20-8-29 0-5-4-9-6-13-3-5-6-10-4-16 1 0 3 0 3-2l2-2c3 1 4 3 5 6l-1 2h-1l-2-1c-4 5 0 10 3 13 4 4 7 10 9 16 3 8 8 16 8 25 0 2 0 5 2 6 6 6 12 12 20 15l1 1c10-1 19 2 28-2 5-2 7-6 12-8l2-3c0-5 2-9 0-14-1-5 2-10 3-14l7-20 3-2c2 2 1 4 0 6-3 8-5 16-5 25l1 7v5l-5 13c-2 4-4 7-8 6l-4 2-3 1c-2 0-4-1-5 2Z" fill="#3c3431"/>
  <path d="M265 273v-1c0-2 0-4 3-5l1 1c2 0 2 2 3 3l3 6c0 2 0 4-2 6-2 0-2-2-2-3-1-3-2-4-5-5l-1-2Z" fill="#8d6361"/>
  <path d="M269 268h-1v-2l16-1c2 2 6-1 8 2-4 2-8 1-11 1h-12Z" fill="#1a100a"/>
  <path d="M268 266v2l-3 4c-3-4 1-5 3-6Z" fill="#270e0d"/>
  <path d="M265 273a200 200 0 0 1 1 4c-2-1-2-3-1-4Z" fill="#271511"/>
  <path d="M358 94c-2 0-4-1-6 1l-8 1h-39c-4-1-7-2-10 0-2 1-6 1-8-3l-4-1c-7-1-13 1-19 1h-3c-2-1-1-1 0-2l18-3c3-1 7 1 8-3 1-5-1-9-5-11l-1-1c1-1 2-2 4-1 4 1 3-2 3-4l28-2c7 0 13 3 20 3l3 2c6 5 14 9 17 17 1 2 4 3 2 6Z" fill="#4a423f"/>
  <path d="M281 73c3 0 6 0 7 2v13l-3 1c-8-1-16 3-24 2l2-4c5-3 8-8 12-12 2-2 4-1 6-2Z" fill="#4a4340"/>
  <path d="M333 96h9c-1 2-3 1-5 1h-4v-1Z" fill="#403735"/>
  <path d="M275 104h36v2h-12a1776 1776 0 0 0-20 3c-12 4-16 13-14 25 0 5 0 10 3 14l2 3c1 1 3 3 1 5-1 3-4 3-6 2-3 0-4-2-5-5-3-10-2-21-2-32 0-6 6-13 12-14 2 0 4-1 5-3Z" fill="#b0776b"/>
  <path d="M254 105c4-2 7 0 11-1v1c-6 1-8 4-9 9-2 4-2 8-2 12l-1 32c-1 2-4 1-6 0s0-3 1-4v-33l3-13c0-2 2-2 3-3Z" fill="#a66b5b"/>
  <path d="M265 158c7-1 7-2 3-7l-1-3h1l4 2c2 5 5 8 10 9l17 4c10 2 21 0 31-1l7 1 1 1-1 2h-2a115 115 0 0 1-47-1l-2-1c-6-1-11-4-17-3l-1-1-3-2Z" fill="#ae796c"/>
  <path d="M253 158c-2-14-2-28 1-42l2-2v32l-1 4c-1 3-2 6 1 8h-3Z" fill="#a96f5e"/>
  <path d="M253 158h3l1 1h-8c-1 0-4 1-5-1h1l2-43c0-4 2-7 4-9l3-1-1 4c-5 14-4 28-4 42 0 2 0 4-2 6 2 2 4 1 6 1Z" fill="#a46859"/>
  <path d="M249 159h8l5 1a5799 5799 0 0 0-13-1ZM268 160l1 1c-2 0-4 1-5-1h4Z" fill="#372b23"/>
  <path d="M251 106c-4 6-3 13-4 20-1 10 1 20-1 30l-1 2c-2-1-2-4-2-6l-1-27c0-7 1-14 8-19h1Z" fill="#a06454"/>
  <path d="M311 105v-1h9c-3 4-6 3-9 1Z" fill="#b37e71"/>
  <path d="M344 96c2-2 5-1 8-1-2 2-5 1-8 1Z" fill="#403735"/>
  <path d="m354 159-4 1c-4 0-8 3-12 0-2-2 1-3 2-5 4-2 9-5 14-6l3-3c1-5 3-8 3-13 0-2 0-4-2-5l-1-4c-1-7-5-11-11-15-2-2-5-3-4-6l6-1h4c2 5 5 10 9 14s3 10 3 15c1 6-1 12-1 18 0 2-1 4-3 5a31 31 0 0 0-6 5Z" fill="#b37e71"/>
  <path d="m292 181-2-2c-1-2-4-2-3-5 1-1 1-3 3-3 15 3 30 2 46 0h1l1 3c0 4-3 4-5 5l-10 1h-12c-4 0-8 0-11 2-3 1-6 1-8-1Z" fill="#9a6556"/>
  <path d="M346 171h1c3-2 7-2 11-3l3 1v1l-4 2-8 2c-2 0-5 1-7 4l-2 2c-1 1-2 3-4 3l-2-2c-1-4 4-4 5-7l3-1 4-2Z" fill="#4f6a2f"/>
  <path d="M339 174c0 4-5 3-5 7l-2 2c-3 1-6 0-8-3v-1c5-2 11 0 14-5h1Z" fill="#8b654d"/>
  <path d="M361 169h-3v-1h10l5-1 8 1c1 0 3-1 3 1h-9l-8 1c-2-1-4 1-6-1Z" fill="#436823"/>
  <path d="m374 156-1 1-13 1c0-5 4-3 6-4a18 18 0 0 1 7 0l1 2Z" fill="#a87569"/>
  <path d="M338 160h12l-5 2c-2 1-4 3-7 2v-4Z" fill="#ae796c"/>
  <path d="m338 164 7-2c-1 3-5 3-7 6l-1 3h-1l-1-3 2-3 1-1Z" fill="#493026"/>
  <path d="M358 168v1l-11 2c2-4 6-2 9-3h2Z" fill="#323922"/>
  <path d="M384 169c-3-2-8 1-11-2h9c2 0 3 0 4 2h-2Z" fill="#26310c"/>
  <path d="M358 168h-2c4-2 8-1 12 0h-10Z" fill="#243109"/>
  <path d="M395 172c-2 0-4 0-5-2l2-1c1 1 1 2 3 2v1Z" fill="#4f6827"/>
  <path d="M354 159v-1c2-2 4-2 6 0l-6 1Z" fill="#a87569"/>
  <path d="m346 171-4 2c1-2 2-2 4-2Z" fill="#262e1a"/>
  <path d="M373 155h-4v-17l-3-24-5-7c-2-1-5-2-4-6h2c3 2 8 1 10 5 4 4 3 9 4 13 1 11 2 22 1 33l-1 3Z" fill="#ac7263"/>
  <path d="M373 155c1-14-1-28-2-42 0-3-3-4-2-7 3 2 5 4 5 8 0 10 4 19 3 29l-1 8v2c4 5-1 2-2 3l-1-1Z" fill="#a86e60"/>
  <path d="m342 103 4 4c7 4 11 9 12 18 1 3 4 6 3 10l-3 12-4 3c-6 2-12 4-16 10l-2 2c-12 1-25 4-37 1l-3-1c-4-5-10-6-15-8-4-1-7-3-10-6l-3-4c3-8 1-16 2-24v-2l8-7c0-1 2-2 3-1 2 4 0 7-3 9-4 3-5 6-4 11 2 7 4 13 10 17 7 4 14 7 20 12l13 1 5-1h6l1-1c2 0 5-1 6-3 3-2 6-3 8-6l1-1 5-3c8-3 10-10 6-18l-1-3c0-5-4-8-7-10-3-1-6-3-8-6 0-2-2-3-4-3l-3-1v-1h10Z" fill="#b58073"/>
  <path d="M332 104h3c4 7 11 11 16 17 3 4 4 7 1 11-1 1-2 1-2 3-4 9-12 14-20 19-4 2-9 2-14 2-1 0-3 0-3-2-1-2 1-2 2-2 8-2 17-9 20-15 2-2 6-3 5-7v-2c-4-3-4-7-5-11l-2-2c-10-6-20-9-31-8l-3-1v-1h12c3 0 6 1 9-1h12Z" fill="#bb8679"/>
  <path d="m357 101 2 4c10 3 9 12 10 20l1 23-1 7h-3c-2-5-2-9-1-14 1-8 0-15-1-22-1-5-4-8-7-11l-5-6h-5c3-2 7-1 10-1Z" fill="#ae7567"/>
  <path d="M347 102h1c-2 2-4 1-6 1h-7c4-2 8 0 12-1Z" fill="#b1796b"/>
  <path d="M332 104h-8c2-2 5-1 8-1v1Z" fill="#b0776b"/>
  <path d="m344 361 3-3c5 1 7-3 8-6l5-13c2-4-2-5-1-9 0-10 2-20 6-29v-4c-1-3 1-5 1-8 1-3 1-7-2-10h2c5 2 7 5 6 11-2 8-5 16-6 25-2 7-4 15 0 22 1 3-2 5-2 7 1 3-2 5-1 8 1 1-2 2-3 3-2 2-5 2-7 5l-8 1h-1Z" fill="#382f2d"/>
  <path d="m355 265 8-1v4h-3l-3-1-2-2Z" fill="#291412"/>
  <path d="M366 276h-2l-1-3v-3l1-1c4 1 1 5 2 7Z" fill="#2a180a"/>
  <path d="M364 269v1l-3 1-1-1v-3l3 1 1 1Z" fill="#6d473e"/>
  <path d="m340 265 3-1h10l1 1-1 1h-11l-2-1Z" fill="#2c191a"/>
  <path d="M353 265h2l2 1c0 2-1 2-2 3l-4-1c-1-1 0-2 1-2l1-1Z" fill="#885c56"/>
  <path d="M364 279c4 2 5 5 3 10-2 2 0 7-5 7l-1-4c0-3 1-5-1-7-1-2 1-4 1-6l2-1 1 1Z" fill="#423732"/>
  <path d="m363 278-1 1c-1 1-1 3-3 3l-1-4c-1-3 1-6 5-6l1 1v3l-1 2Z" fill="#a68073"/>
  <path d="M364 171h12c2 0 4-1 4 2l-3 1h-15c-2-1-5 0-5-3l5-1 2 1Z" fill="#475c30"/>
  <path d="M362 173h18l4 1-2 1h-21l-1-2h2Z" fill="#938672"/>
  <path d="M364 171h-2l-1-1v-1h6v1l-3 1Z" fill="#648148"/>
  <path d="M367 170v-1h8c-2 2-5 1-8 1Z" fill="#567e34"/>
  <path d="M382 174h6v2c-2 0-5 1-6-2Z" fill="#968274"/>
  <path d="M390 174c2 0 4 0 5 2h-4l-1-2Z" fill="#3f5423"/>
  <path d="m390 174 1 1v1h-3v-2h2Z" fill="#836f5b"/>
  <path d="M405 198v9l-15-17c-6-4-12-6-18-7-9-1-17-3-25 0l-2-1-1-2 1-2 2-2h3c6 3 12 1 18 2h1l7 2c3 1 6 1 8 3 5 4 10 2 15 0 3 1 2 4 4 6l2 9Z" fill="#895f52"/>
  <path d="M405 198c-2-3-2-6-2-9h1c0 3 2 6 1 9ZM404 207l1-3h1v4l-1 2c-1 1-2 2-3 0l2-3Z" fill="#6e5e44"/>
  <path d="m406 224-6 8-3 1-1-1 3-5 3-1c4-2 3-7 6-10 1 3-1 5-2 8Z" fill="#4e5022"/>
  <path d="m402 226-2 2-2-3 1-3 5-10h1c1 4-1 7-2 10l-1 4Z" fill="#557434"/>
  <path d="M405 212h-1c-1 1-1 4-3 4-4-2-5-5-4-9 3-2 4 2 6 3h2v2Z" fill="#7f6159"/>
  <path d="m396 178 3 3v1c-4 3-4-2-6-3v-1h3Z" fill="#895f52"/>
  <path d="M399 182v-1l2 1 2 7c-3-1-2-5-4-6v-1Z" fill="#6e5e44"/>
  <path d="M396 178h-3c-1 1-2 0-2-1v-2l4 1 1 2Z" fill="#706f52"/>
  <path d="M270 245c-1 2-4 3-6 3-8 0-16 1-24-3-2 0-3-1-4-3l1-1h2l5 1 2 1v1l9 1h15Z" fill="#946956"/>
  <path d="M246 243h-3l-4-2h-1v-3h1c7 2 14 4 21 1l5 1 1 3c-2 2-3 2-5 2-5-2-10 1-15-2Z" fill="#446226"/>
  <path d="m228 232 1-3c2-1 3 1 4 1l4 5-1 3-8-6Z" fill="#5a703f"/>
  <path d="M237 241c-1 3 3 2 3 4l1 2c-4-1-6-4-9-6-1 0-3-2 0-3l5 3Z" fill="#844f41"/>
  <path d="M236 238v-3c2-1 3 0 4 1l1 1-2 1h-3Z" fill="#537744"/>
  <path d="M253 184c8-1 16-4 24-2h9c3 3 7 6 5 11-1 1-1 0-2-1-3-5-7-6-12-8-2 0-5-1-5 3 0 1 0 2-2 3l-9 1-16 4c-2-2-4-3-6-1l-5 4c-1 1-2 2-4 1 6-8 14-12 23-15 1 3-2 3-3 5 2-1 5 1 7-2 1-3-3-1-4-3Z" fill="#81554a"/>
  <path d="M230 199c4-1 6-5 9-7 3-1 6-2 5 3v1h-2l1 1v2l-3 1-4 2c-3-2-5 2-8 1-1-2 0-2 1-3l1-1Z" fill="#7c5046"/>
  <path d="M252 182c2-2 4-2 6-2 3 0 5-1 5-4l5-2h2l1 2c1 0 2 1 1 2-1 3-4 3-5 3l-15 1Z" fill="#91685b"/>
  <path d="m272 178-1-2c4-1 6-1 8 3h-2l-5-1Z" fill="#887360"/>
  <path d="M277 179h2c2-1 4 0 5 1l1 2c-1 2-2 0-3 0-1-2-4-1-5-3Z" fill="#91685b"/>
  <path d="m229 200-1 3-2 2h-1c1-2 1-5 4-5Z" fill="#7a5e52"/>
  <path d="M227 226v-1l4-3c7 0 11-5 15-10l1-1 3-1c2 2 6 1 7 4l-1 1c-6 3-10 7-16 9-3 2-6 4-9 3l-4-1Z" fill="#a68278"/>
  <path d="M247 212h-1l-3 2-7 3h-5v-4l2-4 2-1h1c3 1 5 2 8 1 2 1 3 1 3 3Z" fill="#996f66"/>
  <path d="m243 213 3-1c-2 7-8 11-15 10v-1c4-3 9-4 12-8Z" fill="#a47b72"/>
  <path d="M243 213c-2 5-7 6-12 8v-4c5 0 8-4 12-4Z" fill="#9f776e"/>
  <path d="M235 209h-2c-4 1-8 3-7-4l2-2c3-2 5-4 8-1 1 3-3 3-3 5 0 1 3 0 2 2Z" fill="#6a4a44"/>
  <path d="m286 176-7-3c2-2 5 1 7 0v3Z" fill="#2f3312"/>
  <path d="M286 176v-3h1v1c0 2 3 3 3 5l-4-3Z" fill="#7d6445"/>
  <path d="M287 173v-3l-2-3 1-2c2 0 3 1 3 2 0 3 0 5-2 6Z" fill="#492a1c"/>
  <path d="M285 167c2 0 2 2 2 3-1 0-4 0-2-3Z" fill="#392718"/>
  <path d="m288 167-2-2v-1h2c1 1 2 1 1 3h-1Z" fill="#a46f62"/>
  <path d="M268 175c-1 2-3 1-5 1-6 0-12 1-18-1h3l17-1 3 1Z" fill="#90806d"/>
  <path d="M324 179v1l-2 1h-13c-2 0-5 0-7 2-2 0-5 2-7 1h-1l-2-3 10-1c3-2 7-1 11-1h11Z" fill="#7d6445"/>
  <path d="m285 182-1-1v-2l8 7h1l1 6-2 4c-2-1-2-2-1-3 0-5-2-8-6-11Z" fill="#466227"/>
  <path d="M284 179v2l-5-2c-2-2-5-3-8-3l-1-1v-1h1l2-1 7 3 4 3Z" fill="#485b2a"/>
  <path d="M280 176c-2 0-5 0-7-3 3 0 5 1 7 3Z" fill="#6f8755"/>
  <path d="M271 174h-1l-5-1c2-1 5-3 6 1Z" fill="#748e59"/>
  <path d="m292 186 2-2v3c-1 1-1 0-2-1Z" fill="#68854b"/>
  <path d="M265 175h-17v-1h17v1Z" fill="#666957"/>
  <path d="M265 173c2 0 4-1 5 1h-5v-1Z" fill="#4d6431"/>
  <path d="M227 226h3l2 1v4l-3-2-2-3Z" fill="#ab9881"/>
  <path d="m397 233 3-1c-2 3-2 7-5 9h-2v-4c0-3 2-4 4-4Z" fill="#815846"/>
  <path d="M367 255c-3 0-6 0-9-2-1-1-4 0-3-3 5-1 9 2 13 2h19l2-1h2c3 0 4 0 3 4-1 3-5 6-5 10l-3 1c-1-3-2-6 2-7v-3l-2-2c-7 2-13 1-19 1Z" fill="#986255"/>
  <path d="m389 251-1 1-10 1c-2 0-3 0-3-2-1-1 0-2 1-3 3-3 6-2 9-4l1-1c2-1 2 0 3 1l-2 2c-4 4-1 4 2 5Z" fill="#875549"/>
  <path d="m394 261 5-12-7 1 1-1c2-1 4-3 6-1s0 4-1 6-1 6-4 7Z" fill="#8c5748"/>
  <path d="m389 244-2-1v-1c0-1 3-2 0-2 1-3 3-4 6-3 4 1 0 3 0 4l-4 3Z" fill="#8f6557"/>
  <path d="m279 247-4 1c3-5 8-7 9-12-1-3 3-4 3-7l2-4c2 0 3-2 4-1 1 2 0 3-1 4l-3 7c-1 2 1 0 1 1 1 2-1 3-2 4-3 2-5 6-9 7Z" fill="#835142"/>
  <path d="M270 245c-5 1-10 3-16 1l1-1c4-1 9 1 14-2l1-1 1-1 4-3 4-1 1 2c-3 3-6 5-10 6Z" fill="#9c715f"/>
  <path d="m280 239-1-1c0-3 3-4 4-6 2-1 3-3 5-3 1 3-3 5-4 7l-4 3Z" fill="#8e6755"/>
  <path d="m279 247 9-7v1c-2 3-5 6-9 7v-1Z" fill="#925f50"/>
  <path d="M237 250c2 0 4 1 5-2 2 1 4-1 6 2-4 1-7 2-11 0Z" fill="#844f41"/>
  <path d="M294 260h-2c-3-3-3-7-3-11 0-2 0-5 3-7 2-1 4 1 6 3l4 2 23-1c2 0 4 0 4-2 0-3 1-4 4-4 2 0 4 1 4 4l1 2c2 7 0 11-6 14 3-3 5-7 4-11 0-3-2-4-4-2-11 5-22 3-33 2l-4-2c-1-1-1-2-3-1l-1 3c-1 4 2 7 3 11Z" fill="#8a5544"/>
  <path d="m274 253 4-2 1-1c3 0 4-4 7-2 1 1-3 8-5 9-6 1-11 2-17 0 4 0 8 0 10-4Z" fill="#a77064"/>
  <path d="M289 249c0 4 1 7 3 11-1 0-3 0-3-2l-1-9h1Z" fill="#925f50"/>
  <path d="M289 249h-1l2-7c0-1-1-2-2-1v-1l2-4v-1l2-3 2-3c1-1 1-4 4-4 2 3 0 5-2 7 4 2 6 5 5 9v5l-1 2-3-2-1-6c-2 0-3 2-4 3-2 1-2 4-3 6Z" fill="#965d4e"/>
  <path d="M306 363h1l8 1h16c-4 3-9 2-13 2-11-1-21-1-31-5l-13-7c-4-2-3-7-4-11l1-9c0-7 0-14-2-21v-1c0-8-5-13-8-19-2-4-3-8 0-12-1 8 3 14 8 20 2 3 3 5 3 9 4 9 8 18 6 29-1 3 2 6 2 9 0 6 4 8 8 10l1 1 7 1c3 2 7 1 10 3Z" fill="#382f2c"/>
  <path d="M331 364h-4c3 0 5-4 8 0h-4Z" fill="#382f2d"/>
  <path d="M344 361h1v1l-4 1h-2c-1-2 2-1 2-2h3Z" fill="#382f2c"/>
  <path d="m341 361-2 2-3 1c0-3 3-3 5-3Z" fill="#382f2d"/>
  <path d="M298 259c-3-6-3-6 4-6s13 0 20 2l2-1c2-2 5-1 5 1 1 3-2 3-4 4-7 4-15 2-23 0h-4Z" fill="#603224"/>
  <path d="m329 225 1 4c1 1 0 2-1 2-4-2-4 0-4 3-1 2-3 3-6 3 3 3 7 5 7 9v1h-12v-2l7-1c-4-3-8-3-16 0l4 1c1 1 2 2 0 2h-5c-3 0-4-1-4-3l2-5 6-1-3-1c-3-3-6-6-6-11 4-2 7-1 9 2 4 4 5 4 9 0l12-3Z" fill="#a56a5b"/>
  <path d="M387 244c-1 2-4 3-6 3l-4 2-2 2 3 1h10c-10 3-20 1-30-1l-3-1c-3 1-5-1-7-3l-4-3c-2-4-7-6-8-11 2-1 2 1 4 1l5 6 7 4-6-4c0-2-4-3-1-5 3-1 5 1 7 2l1 2c5 5 12 6 19 6h1l11-2 3 1Z" fill="#8c5a4e"/>
  <path d="m331 225-2-1c-4-1-3-5-4-8l-1-8c0-2 0-4-3-5h-1c-4-3-8-1-13 0-3 0-3 4-4 7 0 4 1 8-2 12h-1l-1-4v-13c2-3 2-8 7-8 7-1 15-2 21 4 2 2 2 4 2 7 0 4 0 8 2 12v5Z" fill="#9a685a"/>
  <path d="M300 222h1l19 1c3 1 5 0 5-4l1-3c2 2 1 6 3 8v1l-5 2c-2 0-5 1-7 3-3 3-6 3-9 0-2-3-4-5-8-4v-4Z" fill="#aa7263"/>
  <path d="m338 246-2-4c-2-1-5-3-6 2-1 2-2 3-4 3v-1c3-2 2-3 0-5-3-2-2-3 0-6 2-2 4-2 6 0 3 3 7 6 6 11Z" fill="#9a5f4f"/>
  <path d="M331 225c-1-6-4-11-3-17h1c3 3 3 7 5 10v3l4 10c1 1 2 2 1 4l-3-2-5-8Z" fill="#895446"/>
  <path d="m357 253 4 3c-11 1-21-1-19-11l5 2c3 2 7 3 10 6Z" fill="#ab766a"/>
  <path d="M357 253c-3-2-8-2-10-6h1c3 0 5 2 7 3l3 3h-1Z" fill="#a16d61"/>
  <path d="M357 259c-2 2-3 1-5 0l3-1 2 1Z" fill="#51423e"/>
  <path d="m357 259-2-1h5l-3 1Z" fill="#423b33"/>
  <path d="M340 265h2v1l-4 2h-7l-3-2c4 0 8-2 12-1Z" fill="#241610"/>
  <path d="M324 269h1c1 1 3 0 2 2l-8 4c-4 1-9 3-12-2l2-2c5 0 10 0 15-2Z" fill="#ab7c6f"/>
  <path d="M324 269c-4 4-9 3-15 3v-1c5-2 10-2 15-2Z" fill="#33160d"/>
  <path d="M292 268h7v1l-2 2c-6 0-11 0-16-2 3-3 7-1 11-1Z" fill="#a27168"/>
  <path d="m297 270 2-1 10 2v1l-2 1c-4 1-7 0-10-3Z" fill="#a1786b"/>
  <path d="m327 271-2-2 6-1 3-1v2l-4 2h-3Z" fill="#a87b71"/>
  <path d="M299 268h-5l2-1c1 1 3-1 3 1Z" fill="#290f05"/>
  <path d="M292 268c-4 0-7-1-11 1h-1v-2h12v1Z" fill="#93756c"/>
  <path d="M362 296c3-1 3-5 5-7 1 3-1 5-2 8-2 4-3 9-6 13-3 7-3 14-5 20l-1 3c4 5-1 10 0 15 0 3-1 5-5 5l-3 1c-7 9-17 8-27 7l-2-1c-7 3-11-1-16-5l-7-5c-6-4-8-9-8-15l-2-8-9-23-8-11c-3-4-1-7-1-11 1-2 3-1 3 1v7c1 3 2 6 5 8 5 3 7 9 10 14 2 4 4 8 8 11 3 3 5 6 4 11-2 10 5 17 16 18 4 0 7 0 11 2 3 2 7 1 10 0 6-3 12-6 16-12 2-2 2-4 1-6-2-7 1-14 3-20l6-16 4-4Z" fill="#3f3634"/>
  <path d="M267 290c0-2-3-5 1-7l1 2c1 4 3 7 6 9l11 10 2 2c3 10 13 12 21 17 6 3 13 3 19 3 4 0 9-1 12-6l5-7 1-1 3-5c0-1 1-2 3-1s2 2 1 4c-3 5-4 12-9 17-2 2-2 5-2 7 0 8-10 15-17 15h-7c-3-1-7-3-7-8 0-7-5-11-10-13-7-4-12-9-16-15-3-5-6-11-12-15-3-2-4-5-6-8Z" fill="#443c39"/>
  <path d="M274 295c-2-3-7-5-5-10h1c4 3 6 7 11 9l3 1 11 7a173 173 0 0 0 14 6c3 1 4 2 4 5 0 4 2 5 6 5s7 0 10-3l3-1c4-1 7-3 7-8 1-4 5-3 8-3 2 3 2 7-1 10l-3 2c-6 8-14 9-23 9s-16-3-23-9l-7-8c-5-4-8-10-14-11l-2-1Z" fill="#49413e"/>
  <path d="M306 363c-4 0-8 0-11-2l-7-2c-5-2-7-5-9-10-2-6-3-12-2-19 0-6-3-12-5-18v-2c7 8 10 17 8 27 0 7 4 14 9 17h2c4 5 9 7 14 8l1 1Z" fill="#3a322f"/>
  <path d="M266 277v-2c4-1 5 1 6 3 0 2-1 4 1 5v1h-2l-1-1-4-6Z" fill="#a67f7c"/>
  <path d="m270 283 1 1 5 3 4 5c0 1 2 1 1 3-5-2-9-5-11-10v-2Z" fill="#52433b"/>
  <path d="M315 364c-3-1-6 1-8-1 3 0 6-1 8 1Z" fill="#382f2d"/>
  <path d="m279 292-4-4-2-5 1-6c2-1 3 1 4 2 2 2 3 2 5 1l1 1 5 2v1l-1 2-1 1c-3 1-5-2-8-1-1 1 0 2 1 3l1 2-2 1Z" fill="#855952"/>
  <path d="m278 280-4-3-3-5v-2c1-1 2 0 3 1l2 2 3 6-1 1Z" fill="#1e130d"/>
  <path d="M274 272c-1 0-2-3-3 0l-2-4 2-1 2 1 2 2-1 2Z" fill="#27120e"/>
  <path d="m272 268-1-1h9v2c-3 2-5 0-8-1Z" fill="#81685e"/>
  <path d="m269 144 2 3-3 1h-1c-5-6-4-14-4-21 0-4 2-8 4-12 2-5 7-6 12-7v1l-8 9c-2 9-1 17-2 26Z" fill="#b47c6f"/>
  <path d="M299 105v1c-2 2-4 1-6 1l-7 1c-1 0-3-1-3-3h16Z" fill="#b57e71"/>
  <path d="M283 105c1 1 3 1 3 3l-3 1-4-1c0-2 2-3 4-3Z" fill="#b47c6f"/>
  <path d="m268 148 3-1c6 5 13 7 20 9l2 1c3 5 8 5 13 6 11 1 21 0 32-3 2 1 1 3 0 4-10-2-19 2-29 1l-19-3c-5 0-9-4-13-3l-4-2c1-4-3-6-5-9Z" fill="#b27d70"/>
  <path d="m337 165-1 3c-1 2-2 3-4 3l-11 2c-9 0-18 1-27-1-2-1-5-1-4-4 5-3 9 0 14 0 11 0 22 1 32-3h1Z" fill="#a46f62"/>
  <path d="M336 165c-4 5-10 3-15 4a153 153 0 0 1-32-1v-1l-1-3c15 3 29 5 44 1h4Z" fill="#ab7669"/>
  <path d="M352 102c7 5 12 11 14 20 2 11-1 22 0 33-2 2-5-1-6 3-2 0-4-2-6 0 0-2 2-3 4-4 4-2 4-4 4-8 0-8 2-16 1-24-1-3-2-6-5-8-4-3-6-7-6-12Z" fill="#b1796b"/>
  <path d="M289 168h1c3 4 8 4 12 4 10 0 21 1 31-2l3-2v3l-4 2c-9 2-17 1-26 1l-12-1-5-2v-3Z" fill="#9f6a5d"/>
  <path d="M289 168v3c0 1 0 3-2 3v-1c2-2 1-4 1-6h1v1Z" fill="#835347"/>
  <path d="M318 180h4c2 2 6 2 8 3 1 1 2 0 2-1l2-1 2 1c1 2-1 3-1 4v8l-1 4v6l3 9v1c-2 2-4 0-5-1l-2-6c-2-4-1-8-1-12l-1-3-2-5c-1-2-4-3-7-3h-1l-10-1-4-1c0-3 3-1 4-1l10-1Z" fill="#4b6b29"/>
  <path d="M350 177a290 290 0 0 0-5-1c0-2 3-2 4-3l7-2v1c1 0 2 1 1 2l-5 2-2 1Z" fill="#4a602f"/>
  <path d="m334 186 2-4 4-2v1c0 3-2 5-5 6l-1-1Z" fill="#445b25"/>
  <path d="m345 176 2 1a366 366 0 0 0-7 3l1-3c1-1 2-2 4-1Z" fill="#445b28"/>
  <path d="m345 176-4 1c2-2 5-4 8-4l-4 3Z" fill="#608245"/>
  <path d="m361 170 1 1h-6c1-2 3-1 5-1Z" fill="#849a79"/>
  <path d="M332 182v3c-1 1-2 0-3-1-2-2-5-1-7-4h2c2 1 5 3 8 2Z" fill="#516a29"/>
  <path d="M283 108h3l6-2c1 4 0 6-3 8-6 4-10 9-9 17 1 5 5 9 6 14 1 2 3 2 5 2l1 1 7 5c3 1 6 2 6 6l-2 1c-6-5-14-8-21-13-6-4-7-10-9-16s-1-10 5-14c3-1 3-4 3-7l2-2Z" fill="#b98376"/>
  <path d="M304 159c-1-3-3-4-6-5s-5-3-6-6c3-1 5 1 7 2s4 3 7 2 5-1 7 2c6 3 11 1 16-1 7-2 11-9 18-13l1-4c0-3 2-4 4-5 2 4 2 8-2 12l-6 6c-3 3-7 4-10 6l-6 4-5 1-5 1c-2-2-5-1-8-1-2 0-4 1-6-1Z" fill="#b88479"/>
  <path d="m344 149 2-4c5-3 7-8 6-14 3-3 0-6-1-8-3-4-7-9-12-11-2-1-3-5-4-8l4 1c2 7 10 7 14 13l2 5 1 4c5 8 2 16-7 20l-5 2Z" fill="#b88275"/>
  <path d="M269 144c-2-9-2-18 2-26v13c0 5 0 9-2 13ZM283 108l-2 2c-4 2-6 7-10 8 1-5 5-7 8-10h4Z" fill="#b57e71"/>
  <path d="M304 159h10c2 0 4 0 4 2-5 0-10 1-15-1l1-1Z" fill="#b68174"/>
  <path d="M333 155c3-4 8-4 11-6-2 4-5 5-9 6h-2Z" fill="#b88275"/>
  <path d="M333 155h2c0 6-4 4-7 4 1-2 2-4 5-4ZM323 160l5-1c-1 3-3 2-5 1Z" fill="#b68174"/>
  <path d="M302 106c8 0 16-1 22 3 5 3 14 4 13 14l2 2c3 1 2 3 2 5 1 6-2 7-6 7l-1-3-1-13c-1-3-8-7-11-6h-11c-5 1-7 3-8 8v3c-5 5-2 9 1 13l1 3c-1 2 1 4-1 6-3 2-4 0-5-2-2-4-5-6-8-8-4-2-5-11-3-15v-1c6-5 9-11 14-16Z" fill="#bf8a7c"/>
  <path d="M302 106c-3 5-4 10-10 13-4 3-6 13-3 17 2 2 5 0 6 3 1 2 5 4 5 7 0 2 2 2 4 2l2 5c-2 2-5 0-6-1l-8-4c-3-2-6-4-7-8l-6-9c-1-4-1-9 2-12 3-2 4-8 9-8l2-5h10Z" fill="#bc8679"/>
  <path d="M306 153c-2-1-2-3-2-5 1-2-2-4 0-6 6 1 11 0 17 2 2 1 4-1 5-3l3-6c2-2 4-3 6-1v3c1 4-1 6-4 8l-11 8c-1 2-3 1-3 0-2-1-3-1-4 1-2-1-4-2-7-1Z" fill="#bd897f"/>
  <path d="m355 268 2-2 3 1-2 2h-2l-1-1Z" fill="#6d4740"/>
  <path d="M364 273h-1c0-1-4 0-2-3h3v3Z" fill="#9a6e62"/>
  <path d="M361 270c-1 2 3 1 2 3-3 1-5 1-4 5l-1 3c0 1-1 3-2 2l-2-5 2-4c1-1 1-4 4-4h1Z" fill="#946056"/>
  <path d="m360 270-3 5-2-1 2-5 3-2v3Z" fill="#1e0605"/>
  <path d="M342 266v-1h11v1c-3 1-6 2-10 1l-1-1Z" fill="#2c0b08"/>
  <path d="m355 268 1 1-4 3-18 5h-5c-1-1 0-2 1-3l6-2c4-1 9-1 13-5l2 1h4Z" fill="#75443a"/>
  <path d="M351 268h-2c-5 2-10 2-15 1v-2h4l5-1h10l-2 2Z" fill="#a06c66"/>
  <path d="M267 290c5 7 13 10 17 17l11 16 4 2c5 1 8 6 12 9 2 1 1 4 1 7s2 4 4 5c2 3 3 3 6 1l10-1c5-3 8-6 8-12 1-3 2-6 5-9 4-6 6-12 7-19v-3l6-8c1-1 1-4 4-4v5c-4 6-7 14-9 21-2 5-5 12-2 19 1 3-1 6-3 9-4 5-10 8-15 10-4 2-10 3-14-2h-5c-6 0-12-1-17-5-2-2-5-3-3-9 1-3 2-10-3-14-8-5-9-14-14-22l-2-2c-4-3-7-6-8-11Z" fill="#423a37"/>
  <path d="m360 282 2-3c1 3-2 4-2 6 1 4-2 6-4 8l-6 4-2-1-1-1 1-1 5-5 3-3 2-3 2-1Z" fill="#52413b"/>
  <path d="m356 293 4-8c4 1 3 4 2 6-2 1-1 5-4 5-2 0-2-1-2-3Z" fill="#463c37"/>
  <path d="m360 282-1 1c-2 0-2-1-1-2l1-3 1 4Z" fill="#9a6e62"/>
  <path d="M377 173h-13c4-2 9-2 13 0Z" fill="#676c5b"/>
  <path d="M356 171h1c1 2 4 0 5 2h-5l-1-2Z" fill="#33551b"/>
  <path d="M391 176v1l-12 4c-3 1-7-2-10-2-2-1-4 0-6-2s-2-3 1-2c5 0 9 1 13-1h5c2 2 4 0 6 2h3Z" fill="#986c62"/>
  <path d="M377 174c-4 4-8 2-12 1-1 0-2-1-2 1l1 1c-3 2-4 1-5-3h18Z" fill="#95685e"/>
  <path d="M360 174h-1c-2 3-5 4-8 2 1-2 4-1 6-3h3v1Z" fill="#847760"/>
  <path d="M346 182c2-2 4-2 6-2 12 1 23 1 33 6l6 4c-2 2-4 0-7 0 0 1 2 2 1 3-3 1-5 0-7-1l-3-1c-4-2-8-2-12-2h-6c-1-3 2-3 3-3 2-1 4 0 6-2h-15c-2 0-4 0-5-2Z" fill="#80574b"/>
  <path d="m346 182 5 1v5c0 3-3 3-4 5-4 2-6 7-10 10l-3-4v-8h1c2-5 6-6 10-9h1Z" fill="#7f5346"/>
  <path d="m385 193-3-4c3-3 6 2 9 1l10 11 3 6-1 3c-3 1-3-3-6-3l-2-1c0-3 2-1 3-1-1-2-4-2-6-4v-1l-2-1h-2c-1-1-2-1-2-3-1 0 3 0 0-1l-1-2Z" fill="#764d45"/>
  <path d="M399 182v1c-1 3-3 3-5 1-1 2 1 3-1 5-5-4-11-6-17-8l5-1c4 3 8 1 12-1 1 1 3-1 3 2s2 1 3 1Z" fill="#906359"/>
  <path d="M393 179c-3 4-7 6-12 2h-5l-7-2c8 3 15-3 22-2l2 1v1ZM351 176l8-2c1 2 2 5 5 3 1 1 4 0 5 2-6 0-13 1-19-2l1-1Z" fill="#93675d"/>
  <path d="M345 182c-3 4-7 6-11 9v-3c3-1 4-4 6-6 2-1 2-3 5-2v2Z" fill="#80574b"/>
  <path d="M345 180c-3 0-4 3-6 5-1 1-2 3-4 3v-1l5-7 5-2v2Z" fill="#7a695a"/>
  <path d="m393 237-6 3h-1l-1-2c2-3 4-4 6-5l5-2 1 1v1l-4 4Z" fill="#435b26"/>
  <path d="M397 232h-1c-1 0-2 0-2-2l1-3 1-2h3l1 3-3 4Z" fill="#5f7b3a"/>
  <path d="m401 215 3-3c0 4-2 8-4 11l-1-3 1-2 1-3Z" fill="#7f7f61"/>
  <path d="M400 220v3l-1 2-2 1-1-2 3-4h1Z" fill="#a3927a"/>
  <path d="M401 215v3c-3 0-5-2-8-4s-6-3-9-2l-2-1-1-1c0-2 1-2 3-3 2 1 5 0 7-1h4l2 1c0 3 2 6 4 8Z" fill="#936e66"/>
  <path d="m254 246-9-1 1-1h11c2 0 1 1 0 1l-3 1Z" fill="#9c715f"/>
  <path d="M258 244h-12v-1c5 0 10-1 15 1h-3Z" fill="#423f17"/>
  <path d="M239 241c2 0 4-1 4 2l-4-2Z" fill="#524e27"/>
  <path d="m239 238 1-1h4l9 1h3l6-1 4 1c1 2-1 1-2 2-7 2-15 2-22 0l-3-2Z" fill="#5b763b"/>
  <path d="m264 240 2-2v-1c2 0 4 0 5-2l2-1h3l1 2c0 2-2 2-3 3l-3 1c-2 0-3 2-5 3h-1l-1-3Z" fill="#536c30"/>
  <path d="M265 243h1c1-2 3-2 5-1-3 4-7 3-11 4h-6c1-2 3 0 4-2h3l4-1Z" fill="#9f7c65"/>
  <path d="m240 236-4-1-4-4h3l3 2c1 1 3 1 2 3Z" fill="#ab9881"/>
  <path d="m240 236-3-3c2-2 5 0 8 0s6 0 9-2l12-4 11-3c2 0 4 0 5 3 0 2-2 2-3 3l-4 1c-4 0-8 0-11 3l-9 2h-9l6 1c1 0 2 0 2 2-5 1-9-2-14-2v-1Z" fill="#c29d92"/>
  <path d="m244 195 17-5c8-1 16-1 23 5l2 4-4 1h-6l-11-3-2-1h-9c-3 0-5 2-8 1-1 0-2 0-2-2Z" fill="#8a6156"/>
  <path d="m291 193 1 3 1 5c-2 1-3 0-4-1-4-6-10-9-17-10l-1-1c0-1-3-1-1-3 2-1 1-1 0-2 6-3 17 1 21 9Z" fill="#7b5045"/>
  <path d="M271 189c9 1 16 5 21 12l1 3-2 10h-1c-2 0-2-1-2-2 0-2-1-4-3-5l-8-6-1-2c3 1 6-2 10 1-6-7-12-11-25-10 3-2 7-1 10-1Z" fill="#865b50"/>
  <path d="M253 184c4 0 3 0 5 2 4 5-2 4-3 4l-9-1c2-3 6-2 7-5Z" fill="#7d4f44"/>
  <path d="m240 199 2-1h8l1 2-1 1c-3 3-8 4-12 7-1 0-2 1-2-1v-3l4-5Z" fill="#2d2828"/>
  <path d="M240 199c0 2 0 5-3 5l-1 3h2l1 2h-4c-1-2-3 0-4-2 0-3 4-3 5-5 1-1 2-3 4-3Z" fill="#3e332b"/>
  <path d="M250 199c-3 0-5 1-8-1l1-1 3-1 8-1h10l1 1c-2 2-6 1-8 2l-7 1Z" fill="#362721"/>
  <path d="m246 196-3 1h-3v-1l4-1 2 1Z" fill="#81554a"/>
  <path d="M265 174h5v1h-5v-1Z" fill="#374b1b"/>
  <path d="m235 232-3-1-1-4 4 1c2 2 4 1 5-1 2-2 5-4 8-4l4-4c0-2 1-4 3-5h2c5-3 10-1 15-2h11l6 3c0 3 0 5-3 6-2-2-4-3-7-1s-7 1-11 1-7 1-10 4l-6 2-5 2c-3 4-7 4-12 3Z" fill="#b48d83"/>
  <path d="M273 214h-16c-2-2-7 1-8-4-2-3-1-6 1-9v-1h6l5 5v4c6-3 13 1 19-4h1c1 1 1 3 3 3l1 2-2 1c-4 0-7 3-10 3Z" fill="#332f2d"/>
  <path d="m255 214-2 4c0 4-2 6-5 6l-5 2c-6 6-6 6-12 1l-1-1c8 0 13-5 19-8 2-1 3-4 6-4Z" fill="#ad867c"/>
  <path d="m250 201-1 9c0 1 0 2-2 2l-3-2c-2 1-4 0-5-2l-1-1c4-3 7-5 12-6Z" fill="#d2cfce"/>
  <path d="m239 208 5 2c-3 2-5 0-8-1l3-1Z" fill="#5a473b"/>
  <path d="M304 182h4v1l-2 1c-3 2-7 1-9 6h-1c-2 0-3-1-2-3v-3c3 0 5-3 8-2h2Z" fill="#466227"/>
  <path d="M318 180c-3 2-7 1-10 1v-1h10Z" fill="#6d8e56"/>
  <path d="M308 180v1l-4 1h-2c1-3 4-2 6-2Z" fill="#516a29"/>
  <path d="m294 187 2 3 2 2v1a85 85 0 0 1-5 25c-1 1-2 2-3 1-2-1 0-3 0-5l2-10 1-12-1-6 2 1Z" fill="#4b6c27"/>
  <path d="M293 192c0 4 1 8-1 12v-8l1-4Z" fill="#3f621b"/>
  <path d="M386 240h3c1 2-2 2-2 3v1h-3l-11 2h-1l-9-2c-1 0-3 1-4-2l3-1h1l8 1h1l6-1 5-1h3Z" fill="#9d7367"/>
  <path d="m294 230-1 2-3 4-2 2h-2v-2c4-3 4-8 6-11l-2 1c-1-2 1-4 1-6l2-2h2c4 4 1 8-1 12Z" fill="#804e3e"/>
  <path d="M292 220c1 2-2 4-2 6l-2 3-4 4-1-2c3-4 4-9 9-11Z" fill="#4b4f28"/>
  <path d="M284 231v2l-5 5-4 1h-1l3-3 5-5h2Z" fill="#444f21"/>
  <path d="m271 242-5 1c1-3 2-4 5-3v2Z" fill="#446226"/>
  <path d="M271 241v-1l3-1h1l-4 2Z" fill="#444219"/>
  <path d="M326 246v1c-4 2-8 1-12 1h-14v-2c0-1-1-3 1-3 0 3 1 4 4 4h9c4 0 8 1 12-1Z" fill="#a06858"/>
  <path d="M292 243c1-2 1-6 4-5 3 0 1 3 1 6v2c-2-1-2-4-5-3Z" fill="#8e5446"/>
  <path d="M294 230c1-4 3-8 0-12v-5c3-6 2-13 4-19 4 0 6 2 4 6l-2 5v13c-1 2 0 5-2 7l-4 5Z" fill="#865244"/>
  <path d="M298 225c1-2 0-5 2-7v8l-1 1c4 2 3 7 7 9 3 4-2 3-3 4l-2 3-1 3c-2-1-1-3 0-4 1-3 1-5-1-6-3-3-4-6-1-9v-2Z" fill="#9f6455"/>
  <path d="M290 236c0-2 1-3 3-4 0 2-1 3-3 4Z" fill="#835142"/>
  <path d="m279 349 9 10c-5-1-9-6-9-10ZM288 359l7 2c-2 0-5 0-7-2Z" fill="#382f2d"/>
  <path d="M314 247h-4c-1-2-3-1-5-1l-2-2 2-2c5-2 10-2 15-1 2 1 4 2 4 4-1 2-3 1-4 1h-6c0-2 2-2 3-2h-7l4 2v1Z" fill="#b77d6e"/>
  <path d="M303 240c0-2 4-1 3-4l5 1c-2 2-5 3-8 3Z" fill="#a06858"/>
  <path d="M362 242h-3l-1-1-5-1-1-1-1-1-2-3v-3h4l12 4 10 1c2 0 4 0 6 2v1c-6 3-13 1-19 2Z" fill="#4e6d32"/>
  <path d="M339 235c-2-5-6-8-6-14 2 0 3 2 4 3l8 10v1c-1 2 2 2 2 4 1 3-1 3-3 2-3-1-3-4-5-6Z" fill="#804f3e"/>
  <path d="M352 239h1c2 1 4 0 6 2v1c2 2 5 2 8 2l5 2c-6 0-12-1-18-4-1-1-2-1-2-3Z" fill="#9d7063"/>
  <path d="M344 241c1 0 3 0 3-2l4 3c1 1 4 2 2 4l-4-1-5-4Z" fill="#845346"/>
  <path d="M373 246c3-2 7-2 11-2-3 2-7 2-11 2Z" fill="#9d7063"/>
  <path d="M345 235v-1l1-1 4 2 1 3-6-3Z" fill="#504822"/>
  <path d="m300 205 1-4c2-4 1-6-3-7-2 0-2-1-1-2v-1l10-3c5-1 9-2 14 0 2 0 4 1 5-1h1c2 1 2 3 1 5 2 4 0 8 1 11l1 2-1 3h-1c-1-7-5-10-11-10h-3c-7-1-12 0-14 7Z" fill="#875547"/>
  <path d="M326 216c0 11 1 9-10 8h-12c-2 0-3 0-3-2l1-14c0-6 6-9 15-8l4 2c-3 2-6 1-10 1-5 1-7 3-7 9s2 8 7 9c4 0 10 2 11-1 2-4 1-9 0-13 0-2-2-3-1-5 2 0 4 1 4 3l1 11Z" fill="#ad776a"/>
  <path d="M346 234h-1c-5-3-8-8-12-13v-3h1l5 5 6 8c1 1 2 1 1 3Z" fill="#4e501b"/>
  <path d="M334 218h-1c-3-3-2-7-4-10v-3c2-1 1 2 2 2l2 6c1 2 2 3 1 5Z" fill="#43561c"/>
  <path d="M343 266c-2 2-4 1-5 1l4-1h1Z" fill="#8d6a61"/>
  <path d="m330 275-1 2c-2 2-4 2-6 2h-16l-17-3c-6-1-11-3-16-6l-2-2 8 1h1l16 1c3 1 6 3 10 3 4 3 9 2 13 1s7-1 10 1Z" fill="#7e4c40"/>
  <path d="M330 275c-3 1-7-1-10-1 2-2 4-3 7-3l3-1c2 1 5-1 6 3-2-1-4 2-6 2Z" fill="#905c4e"/>
  <path d="m336 273-6-3 4-1c5-2 10-1 15-1-3 5-9 4-13 5Z" fill="#885347"/>
  <path d="M274 295c5 1 8 4 12 7 6 4 9 11 16 15 10 6 21 7 32 5 3-1 4-4 6-6 2-1 3-3 6-3-3 5-5 10-12 13h-17c-9-1-15-6-23-10-3-2-5-5-7-9-2-3-5-7-9-9l-4-3ZM353 303l-1 3c-3 1-2 6-6 7 2-3 0-7 1-10l1-1 5 1Z" fill="#473f3c"/>
  <path d="M348 303h-1c-4 1-8 2-8 7 1 2-1 5-5 4l-4 2c-3 3-7 3-10 3-6 1-9-1-8-7 0-2-1-2-3-2-4-1-8-2-11-5 4-3 7 1 11 2 6 2 11 0 17-1l4-1c6-1 12-4 16-8l2-1h1c1 3-1 5-1 7Z" fill="#4a433f"/>
  <path d="m280 291-1-2c2-2 4 0 5 1l11 6c3 1 6 2 7 5v1c-2 1-4 0-6-1-3-1-1 2-2 2-3-3-7-3-10-7l-4-5Z" fill="#7e463d"/>
  <path d="m294 303-1-4 9 3c2-1 4 0 6 2l8 1c3 0 3 0 4 2-4 2-8 0-12 1-3-1-6-3-10-3l-4-2Z" fill="#6a382d"/>
  <path d="M280 291c2 1 4 2 4 5l-3-1-2-3 1-1Z" fill="#7d524b"/>
  <path d="M273 283c2 1 4 2 2 5l-4-4 2-1Z" fill="#8f655c"/>
  <path d="m288 286 1-2 5-2 3 1 13 1h14l7-1h5l6-1 1 1c1 3-2 4-4 5l-4 1c-12-2-25-3-38 0-2 2-4 0-6-1l-3-2Z" fill="#a49b97"/>
  <path d="m295 297-11-6-5-2c-2-1-3-2-1-4 3 0 6 1 8 3 2 3 4 4 7 5l2 1v3Z" fill="#874f42"/>
  <path d="M285 289c-2-3-5-2-7-4 3-3 6 2 9 1l2 1c1 1 2 1 2 3v1c-3 2-4-1-6-2Z" fill="#92584d"/>
  <path d="M284 281h-1l-1-1v-2c1-2 3-2 4-2 3 3-1 4-1 5h-1Z" fill="#635f5d"/>
  <path d="m282 280 1 1c-2 2-4 1-5-1l1-1 3 1Z" fill="#2e2c2a"/>
  <path d="M284 281h1c2-1 4 0 5 1l-1 1c-2 0-5 2-5-2Z" fill="#2a221f"/>
  <path d="m289 283 1-1 3-1 2 2c-2 2-4 1-6 1v-1Z" fill="#32312c"/>
  <path d="m289 288-2-2h1l3 1c0 2-1 2-2 1Z" fill="#7d594f"/>
  <path d="M274 270c6 0 10 4 16 5l-1 2-6-1-3-1-2-1-3-1-1-1v-2Z" fill="#563833"/>
  <path d="M275 273c2-2 3 0 4 1v5c-2-2-4-3-4-6Z" fill="#49413b"/>
  <path d="m334 218-1-5c1 0 2 2 3 1 2 0 2 1 3 2l1 4-2 3-4-5Z" fill="#426c24"/>
  <path d="m336 213-3-9 1-1 3 2v2l1 4-2 2Z" fill="#7d6f5e"/>
  <path d="m331 207-2-2v-11l2 2c-2 4-1 7 0 11Z" fill="#4c6828"/>
  <path d="M308 183v-1c4 0 8-1 11 1l-4 2h-4l-3-2Z" fill="#3a431c"/>
  <path d="M329 194v10c-2-4-1-8-1-12l1 2Z" fill="#435425"/>
  <path d="M320 183c3 0 6 1 7 4-3 0-5-1-7-3v-1Z" fill="#3a4210"/>
  <path d="m336 213 1-2h1l1 3-1 2-2-2v-1Z" fill="#978b7b"/>
  <path d="m334 203-1 1c-2-2-1-4 1-6v5ZM335 187v1l-1 3v3c-1-3-2-5 0-8l1 1Z" fill="#4c6828"/>
  <path d="M320 183v1c-2 1-3 2-5 0l4-1h1Z" fill="#3e380d"/>
  <path d="m279 131 4 4c3 4 5 9 9 13-5 1-7-1-8-6-1-4-5-7-5-11Z" fill="#b88479"/>
  <path d="M335 134c-5-1-7 3-8 7s-4 4-6 6c-1-3-4-2-6-3h-7c-2 2-3-1-4-2l-4-8-1-1c-1-2 0-4 1-5 3-5 1-15 12-14 3 0 6 1 10-1 1-1 13 5 13 6-2 3 0 6 0 9v6Z" fill="#c08b80"/>
  <path d="m352 271 4-2h1l-1 5c0 2-1 3-3 4l-1-1v-6Z" fill="#493b37"/>
  <path d="M339 287c2-1 4-1 4-4v-1l4-2 5-2h3l1 5v1l-3 6c-1 2-2 4-5 4-1 0 0-4-2-2l-3-1c0-1 1-3-2-2-1 0-2 0-2-2Z" fill="#85554a"/>
  <path d="M356 284v-1l2-2 1 2-2 3c-2 0-2-1-1-2Z" fill="#936f5d"/>
  <path d="m355 278-2 1v-2l3-3 1 1-2 3Z" fill="#331a18"/>
  <path d="m307 278 22-1 4-1v2l-4 2h-3l-5 1h-16l-2-2c1-2 3-2 4-1Z" fill="#57332c"/>
  <path d="M333 278v-2l19-5v1c0 2-2 2-3 2l-7 3c-3 1-6 3-9 1Z" fill="#583328"/>
  <path d="M348 303c-3-3 1-5 1-7 3 0 4-4 7-3l2 3-5 7h-5Z" fill="#46413f"/>
  <path d="m346 291 3-2c1 2-1 3-1 5v1l-3 1-1-2c-1-2 1-2 2-3Z" fill="#7b483a"/>
  <path d="M345 295h3v1l-1 1c-3 2-5 5-9 4 0-4 4-4 7-6Z" fill="#6a483e"/>
  <path d="m356 284 1 2-4 4c-1-3 1-4 3-6Z" fill="#8c6152"/>
  <path d="M336 207v-2c-1-1 0-2 1-3 3-3 5-8 9-10 3-2 6-4 10-4h1c6 0 13-1 19 2-2 2-4 1-6 1-7-1-15-1-22 4 0 2 3 0 3 2 0 3-3 4-5 5-4 1-6 5-10 5Z" fill="#885a51"/>
  <path d="M357 188h-6c-4-2 0-3 0-5 5-2 9-1 14-1 1 0 3 0 3 2l-2 3c-3 1-6-1-9 1Z" fill="#7b5348"/>
  <path d="M351 197c-2-1-5 2-5-1-1-3 2-3 4-4 7-3 14-4 21-3l5 1 2 1-1 2-11-2c-3 0-6 1-8 4-2 1-4 3-7 2Z" fill="#92655b"/>
  <path d="m377 192 1-1 7 2c0 1 4 1 1 3-4 1-8 0-12-2 0-2 2-1 3-2Z" fill="#835d59"/>
  <path d="M351 188h5l-10 4 5-4Z" fill="#80574b"/>
  <path d="m337 202-1 3-2-2v-4l3 3Z" fill="#77584e"/>
  <path d="m374 193 12 3 2 2c1 1 2 1 1 2l-1 3c-2 1-4 0-5-1-3-1-3 1-3 2-1 2-1 3-3 1l-2-3c-2-1-1 2-3 1-2-3-1-5 0-7h1-1c-3 0-7 0-9-3 3-3 7-1 11 0Z" fill="#292529"/>
  <path d="M395 206a586 586 0 0 1-6 0v-1c0-2 4 0 3-4 3 1 7 0 7 5-1 1-3-2-4 0Z" fill="#3c312f"/>
  <path d="M390 198h3c1 1 0 2-1 2-2 0-2 0-2-2Z" fill="#7e544f"/>
  <path d="m390 198 2 2v1c-1 1-2 0-3-1l-1-2h2Z" fill="#3c312f"/>
  <path d="m381 239-6-1v-1l3-1 7-2 5-2 2 2-6 4c-1 1-3 2-5 1Z" fill="#647c4b"/>
  <path d="m392 234-2-1c-1-2 1-2 2-3l1-1 1 1 2 2-4 2Z" fill="#668352"/>
  <path d="m381 239 5-1v2l-2 1-3-1v-1Z" fill="#50622c"/>
  <path d="M393 230h-1l-4 2h-3c-5-3-9-7-15-9-1-3-5-5-5-9l5-3 2 1c-1 4 1 6 4 8 5 3 10 5 16 6 2-1 3-3 5-2v2l-1 1-3 3Z" fill="#b68d84"/>
  <path d="m393 230 3-3-2 3h-1Z" fill="#a3927a"/>
  <path d="M383 211c4-2 7-2 10 1l8 6-1 2h-1c-6 3-6 3-11-2-2-2-5-4-5-7Z" fill="#a27970"/>
  <path d="M383 211c3 1 1 6 5 6 2 6 7 3 11 3l-2 4-4 3c-4-2-8-5-11-9-1-2-2-4-1-6l1-1h1Z" fill="#a98076"/>
  <path d="M389 205v1l-5 2-3 2c-2 0-2-1-2-2v-4c1-2-2-2 0-4h3l6 3 1 2Z" fill="#d2d1d4"/>
  <path d="m384 208 5-2 2 1c-2 1-4 3-7 1Z" fill="#695252"/>
  <path d="m380 208 1 2 1 1-5 1c-2-2 0-3 1-3l2-1Z" fill="#a27970"/>
  <path d="M254 239c-3-2-7 0-9-4 7 2 13-3 20-2 3-2 7-2 10-3l3-1v2l-5 4-1 1c-2 2-4 1-6 2h-4l-6 1h-2Z" fill="#caa99e"/>
  <path d="M256 239c2-2 4-1 6-1l-6 1Z" fill="#c29d92"/>
  <path d="M282 232c-1 2-2 4-5 4-2 0-1-1-1-2 0-2 1-2 2-3 1 0 3-2 4 1Z" fill="#426d21"/>
  <path d="m278 232-2 2-3 1c1-3 3-3 5-4v1Z" fill="#c5a298"/>
  <path d="m266 238 6-2c-1 4-4 1-6 2Z" fill="#5b763b"/>
  <path d="M235 232c5 1 9-1 12-5l2-1c5 1 8-2 11-5l6-1c5 0 10 0 15-3 3-2 4 2 5 4 1 3-1 4-3 5-3-1-5-2-8-1h-3c-3 1-5 0-7 2-7 1-14 4-20 7l-8-1-2-1Z" fill="#ba9289"/>
  <path d="M272 224h3l2 1c-3 2-7 2-10 3-5 3-11 1-14 5-2 2-5 1-8 1 5-5 12-7 19-8 2-2 6 0 8-2Z" fill="#bd968c"/>
  <path d="M275 230c-3 3-6 3-10 3 2-4 6-3 10-3Z" fill="#c5a298"/>
  <path d="m277 225-2-1c3-1 6 1 8 1v2h-1c-1-2-3-2-5-2ZM278 231v-2l4-2c1 3-1 4-4 4Z" fill="#bb968c"/>
  <path d="M256 197c3-2 6-1 9-1 4 0 7 2 11 3l1 1c1 1 4 0 3 3-5 1-8-2-12-2l-6-2c-2 0-5 1-6-2Z" fill="#221c12"/>
  <path d="M264 195h-10c3-2 7-1 10 0Z" fill="#7c5a4f"/>
  <path d="M278 231c2 0 4-2 4-4l1-2c1-1 3-2 3-4l3-6v-1h1v4c1 1 1 0 2-1l1 1-1 2-8 11-2 1h-4v-1Z" fill="#4b6b31"/>
  <path d="m280 203-3-3c4 0 6 4 9 6 1 2 0 3-2 2l-3-2-1-2v-1Z" fill="#2f221a"/>
  <path d="M289 214v1l-6-2v-2l1-2c2 0 3 1 4 3l1 2Z" fill="#c9bfbc"/>
  <path d="m288 212-4-3v-1l2-2c1 2 4 3 2 6Z" fill="#40342e"/>
  <path d="M256 197c2 2 5 1 7 1v2c-2 2-5 2-7 0h-6v-1c2-2 4-2 6-2Z" fill="#28231c"/>
  <path d="M283 211v2c-3 2-7 1-10 1 3-1 6-6 10-3Z" fill="#574944"/>
  <path d="m280 204 1 2h-2c-4 5-9 2-13 3-1 0-4-2-3 2 1 1 0 1-1 1l-2-1c1-2-1-4 1-6l2-2c5 5 7 5 13 1h4Z" fill="#262622"/>
  <path d="m263 203-2 2c-3 0-5-1-5-5h7v3Z" fill="#dcd8db"/>
  <path d="M251 200c1-2 2 0 3 0l-1 3c-2 0-1-2-2-3Z" fill="#2d2828"/>
  <path d="m281 206 3 2c-2 1-2-1-3-2Z" fill="#262622"/>
  <path d="M315 184h5l7 3c0 2-1 3-3 3-8-2-15-2-22 2-2 1-3 0-5-1l-1-1 1-1c0-3 4-3 6-4l3-1h9Z" fill="#93604f"/>
  <path d="M306 184c-3 2-7 2-9 5-2-3 1-3 3-4l6-2v1Z" fill="#3a431c"/>
  <path d="M306 184v-1h2l3 1h-5Z" fill="#3d3a0e"/>
  <path d="m297 192 1 2c0 7 0 13-3 19-1 1-1 2-2 1 2-6 3-13 3-19l1-3Z" fill="#435c1e"/>
  <path d="m293 214 2-1-1 5h-1l-1-1 1-3Z" fill="#524a20"/>
  <path d="m381 240 3 1-6 1-6 1h-1l-8-1h-1c3-2 7-1 10-1s6 1 9-1Z" fill="#45431a"/>
  <path d="M363 242c3 0 6-1 8 1-3 0-5 1-8-1ZM372 243c2-2 4-1 6-1-2 2-4 1-6 1Z" fill="#9d7063"/>
  <path d="m314 246-7-1c4-4 9-4 13-1-2 2-4 0-6 2Z" fill="#c18779"/>
  <path d="M378 237h-13c-4 0-8-1-12-4-2-2-7-2-6-6 1-2 2-2 4-2l4 1 11 4c4 2 8 1 13 2 1 0 4-1 4 3l-5 2Z" fill="#c8a297"/>
  <path d="M338 223a608 608 0 0 0 2-3l5 6 4 6 1 3-4-1c-2-4-6-6-8-11Z" fill="#4d702f"/>
  <path d="m349 232-5-6v-1h1l2 2c1 3 5 3 6 6l-4-1Z" fill="#baaa95"/>
  <path d="M359 241c-2 0-4 0-6-2 2 1 5-2 6 2Z" fill="#494c1f"/>
  <path d="M365 237a3523 3523 0 0 1 10 1c-3-1-7 1-10-1Z" fill="#b09d86"/>
  <path d="M321 202c5 5 2 12 4 18l-2 2h-12c-6 0-8-2-8-8-1-10 1-12 12-12h6Z" fill="#b27f71"/>
  <path d="m307 278-4 1c-2 2-4 1-6 1h-3l-5-2v-2l1-1 17 3Z" fill="#583b38"/>
  <path d="M345 295c-1 3-5 3-7 6-1 4-5 4-8 5l-3 1v-1c0-2 2-3 4-4 2 0 4 0 4-3 3-2 5-4 9-5l1 1Z" fill="#674036"/>
  <path d="M330 306c2-2 6-2 8-5 4 0 6-3 9-4-4 6-10 8-17 9Z" fill="#52413b"/>
  <path d="M327 306v1c-6 2-13 3-19 1 4-2 8-1 12-1 2-2 4-3 7-1Z" fill="#804a3e"/>
  <path d="M344 294c-2 3-6 4-9 6-8 6-17 7-27 4l-6-2v-1c4-2 9-2 13-1 8 1 15-1 21-5 3-1 4-4 7-4h3l-2 3Z" fill="#804a3e"/>
  <path d="M337 295c-5 4-11 7-17 6h-18l-7-4-1-3h4c11 7 22 6 33 1 2 0 4-2 6 0Z" fill="#8c5346"/>
  <path d="M308 304c10 3 18-1 27-4 2 0 1 1 0 2l-8 4-7 1c-3-2-7-1-10-1-1 0-3 0-2-2Z" fill="#6b372c"/>
  <path d="M337 295c-4 0-7 3-11 4-10 1-20 3-29-4l-3-1c-2-1-4-1-3-4 4-1 7-1 10 1 1 1 2 3 4 2 6-2 13 0 20-1l1-1 2-1c2-2 5-2 8-2l3-1c2 2 5 0 7 0 0 3-2 3-3 4-2 2-3 4-6 4Z" fill="#92584d"/>
  <path d="m336 288-8 3c-1 2-3 1-5 1l-16 1-6-2-4-2c0-1-3-2 0-2l33-1 6 2Z" fill="#c2bbb7"/>
  <path d="M294 279h3l8 1a319 319 0 0 1 12 0h7c2 1 5-1 7 2l-1 1-6 1a9 9 0 0 1-5 0h-15c-3 0-6 1-9-1l-2-1-4-1c1-2 3-3 5-2Z" fill="#827c78"/>
  <path d="M295 283h25c1 1 4-1 5 2h-25c-2 0-4 0-5-2Z" fill="#4c2e30"/>
  <path d="m297 289 4 2v1c-3-1-6-3-10-2l-2-2 2-1 6 2Z" fill="#8e564f"/>
  <path d="M330 282h1l4-1 1 1 1 1v1h-11c1-3 3-1 4-2Z" fill="#433130"/>
  <path d="M326 283c2 2 4 1 5 1l-6 1c-2-2-3-1-5-1v-1a305 305 0 0 1 6 0Z" fill="#4b3334"/>
  <path d="m337 283-1-1c1-2 3-2 6-2l1 2v1h-6Z" fill="#3a2425"/>
  <path d="M337 283h5l-5 1v-1Z" fill="#85554a"/>
  <path d="m291 290 3 4c-4 0-7-2-9-5 2 0 4 3 6 1Z" fill="#8c5346"/>
  <path d="m294 279-4 1 3 2h-3l-5-1c-2-3 1-3 2-4s1 0 2 1c2 0 4-1 5 1Z" fill="#716b68"/>
  <path d="M279 279c1-2-4-3 0-5l3 2v4l-3-1Z" fill="#52504c"/>
  <path d="M282 278v-2l1-1 6 1v2l-2-1-5 1Z" fill="#655e5a"/>
  <path d="m283 275-1 1-3-2 4 1Z" fill="#624e4b"/>
  <path d="M340 220h-1l-1-4 1-2c2-3 4-3 7-3 2 1 4 0 6 2v1l-2 1-6 1c-1 1-3 1-3 3l-1 1Z" fill="#a18d77"/>
  <path d="M336 207c3-2 5-5 9-6v1c0 2-2 2-3 4l-1 1-2 3-1 1h-1l-1-4Z" fill="#77584e"/>
  <path d="m346 212-7 2-1-3 3-3 3-2 3 4-1 2Z" fill="#d5d0d0"/>
  <path d="M304 130c1-2 1-5 5-5s9 1 12-2h2c3 3 3 12-1 15h-3c-3-1-6-2-9 0-3 1-6-3-6-8Z" fill="#c08e82"/>
  <path d="M342 276c3-3 7-2 10-4 3 2-1 3 0 5-1 2-2 3-5 2-1-2-3-2-5-3Z" fill="#4e4a44"/>
  <path d="m347 279 5-2h1v2c-2 2-4 2-6 2l-1-1 1-1Z" fill="#312b28"/>
  <path d="m346 280 1 1-4 1-1-1c1-1 2-2 4-1Z" fill="#120e09"/>
  <path d="m346 280-4 1-6 1c-1-1-1-3-3-2l-4-1 4-1 9-2c2 1 6-3 5 3l-1 1Z" fill="#686660"/>
  <path d="M329 279c2 1 6-2 7 3h-5c-2-2-5 0-7-2l2-1h3Z" fill="#767570"/>
  <path d="M317 280h-9c3-2 6-2 9 0Z" fill="#422a24"/>
  <path d="M305 280c-3 0-5 1-8-1h6l2 1Z" fill="#716b68"/>
  <path d="m326 279-2 1h-3l5-1Z" fill="#686660"/>
  <path d="M345 202v-1l6-4 7-2c1-2 2-2 4-1 1 1 0 2-2 3-4 0-8 4-12 5l2 1c0 2-1 2-3 2-2 1-3 0-2-3Z" fill="#2a1d18"/>
  <path d="m362 194-4 1c0-4 2-5 5-5l14 2-3 1c-4 0-8-1-11 1h-1Z" fill="#8e6761"/>
  <path d="M345 202c0 1 0 3 2 2l17 3c3 1 6 0 7-4h1l1-3c1-2 2-2 3 0-2 3-1 6-2 9 0 1-1 2-3 2-8 2-17 3-25-1-1-1 0-3-3-3 1-2-1-1-2-2l4-3Z" fill="#2a282a"/>
  <path d="M373 195c1 0 2 0 1 1-2 2-2 5-2 7-4 6-8 6-14 1l-2-4 4-3c3 3 7 4 10-1l3-1Z" fill="#222024"/>
  <path d="m373 195-3 3c-4 4-6 4-10 0v-2l2-2h1l10 1Z" fill="#1e1f21"/>
  <path d="M373 208c1-3 0-6 3-8-1 2 2 3 2 5l1-1 1 4-1 1c-2 1-4 0-6-1Z" fill="#37353a"/>
  <path d="m389 205-1-2 1-3 3 1c4 5-1 3-3 4Z" fill="#342e30"/>
  <path d="m388 231 4-1c0 2-1 2-2 3l-5 2v-1c0-2 2-2 3-3Z" fill="#ae9e8a"/>
  <path d="m378 237 4-2h3l-7 2Z" fill="#b09d86"/>
  <path d="M376 211h6c0 6 3 10 8 13 1 1 3 1 3 3 0 1-1 2-2 1-7-3-14-5-21-10-3-3 2-4 2-6l2-2 2 1Z" fill="#b0877e"/>
  <path d="M371 223c6 1 9 5 14 8 0 2-1 2-2 1l-4-1c-3-4-7-4-10-4l-12-1c-4-1-8-3-10-7 1-1 1-2 3-2l16 1c3 1 3 4 5 5Z" fill="#b89389"/>
  <path d="M371 223c-6-7-14-2-21-5l-3 2c-1 1-2 2-4 1l-3-3c-2-5 3 0 3-2l7-2h2c4-2 9-2 13 0 2 3 5 5 6 9Z" fill="#bb8e86"/>
  <path d="m383 232 2-1h3l-3 4h-3c1-2-1-2-2-2-9 2-17-3-25-6 2-2 5-1 7-1l10 1c2 0 4 0 5 2l6 3Z" fill="#c29c90"/>
  <path d="m374 211-2 1h-2c-6 3-12 1-18 1-2 0-4 1-6-1v-2a205 205 0 0 0 28 1Z" fill="#524241"/>
  <path d="M352 213c6 0 12 1 18-1-1 2-3 2-5 2h-13v-1Z" fill="#b0877e"/>
  <path d="M374 211h-2l1-3c2-1 4 0 6 1 0 2-2 1-3 2h-2Z" fill="#464143"/>
  <path d="M272 224c0 1 1 2-1 2h-7c2-4 5-1 8-2Z" fill="#bb968c"/>
  <path d="M263 203v-5l17 5v1c-2 0-4 1-5 3-4 3-10 1-12-4Z" fill="#201f1b"/>
  <path d="M383 232c-2 0-5 1-7-2 0-2-2-2-4-2-5 0-11-2-17-1l-4-1-6-1h-1c-1-1-2-2-1-4l4-1c7 5 15 6 24 6 3 0 7 0 8 4l4 2Z" fill="#be978d"/>
  <path d="M345 225c2-2 4 0 6 1l-4 1-2-2Z" fill="#bf9f94"/>
  <path d="m343 221 1 4v1c-2-1-3-3-4-6v-2c2 0 3 1 3 3Z" fill="#b89389"/>
  <path d="M322 213c0 2 0 5-3 6-5 1-10 2-13-2-3-3 2-13 6-14 8-1 10 1 10 10Z" fill="#bb877a"/>
  <path d="M306 291h17l5 1c-4 1-7 2-11 1-3-1-7 0-11 1-2 1-4 1-5-2l5-1Z" fill="#8e564f"/>
  <path d="M328 292c-2 0-3 1-5-1h5v1Z" fill="#785551"/>
  <path d="m306 291-5 1v-1h5Z" fill="#7d5855"/>
  <path d="M320 283v1c-5-1-10 1-15-1h15Z" fill="#655150"/>
  <path d="M320 283h-11c4-2 7-1 11 0Z" fill="#908885"/>
  <path d="M326 283h-3c2-2 5-1 7-1l-4 1Z" fill="#767570"/>
  <path d="M350 214c-2 2-4 4-7 2 1-4 5-1 7-2Z" fill="#b1887f"/>
  <path d="M341 209c-1 1-1 3-3 2 0-2 1-4 3-5v3Z" fill="#373429"/>
  <path d="M341 209v-4c2 0 3 0 2 2l-2 2Z" fill="#1e1f11"/>
  <path d="M358 203q7 5 14 0c-1 6-3 7-10 5l-13-3-2-1 3-1 2-1 6 1Z" fill="#292529"/>
  <path d="m352 202-2 1h-4c5-3 9-7 14-7v2l-4 2c-1 2-2 2-4 2Z" fill="#1f1e15"/>
  <path d="m352 202 4-2h3l-1 3c-2 0-4 2-6-1Z" fill="#c1bec3"/>
  <path d="M319 211c-1 3-3 5-6 5-2 1-4-2-4-4 1-3 2-7 5-7s3 4 5 6Z" fill="#bf8c7f"/>
</svg>
