<svg>
  <path fill="#9D5887" d="M14.4906 9.48982C14.8273 9.11492 15.1756 8.7676 15.5356 8.44783C15.8955 8.12807 16.2554 7.85242 16.6154 7.62087C16.9753 7.38931 17.3295 7.21289 17.6778 7.0916C18.0377 6.95929 18.3803 6.89313 18.7054 6.89313C18.9608 6.89313 19.2105 6.93724 19.4543 7.02545C19.7097 7.10263 19.9361 7.22943 20.1335 7.40585C20.3309 7.57125 20.4877 7.78626 20.6038 8.05089C20.7199 8.31552 20.7779 8.62978 20.7779 8.99363C20.7779 9.52289 20.7025 10.0467 20.5515 10.5649C20.4006 11.0721 20.209 11.5683 19.9768 12.0534C19.7446 12.5386 19.4949 13.0072 19.2279 13.4593C18.9724 13.9114 18.7286 14.3469 18.4964 14.7659C18.2642 15.1739 18.0726 15.5653 17.9216 15.9402C17.7707 16.3041 17.6952 16.6404 17.6952 16.9491C17.6952 17.1917 17.7591 17.3681 17.8868 17.4784C18.0261 17.5776 18.1713 17.6272 18.3222 17.6272C18.6241 17.6272 18.9782 17.4618 19.3846 17.131C19.8026 16.8002 20.238 16.3757 20.6908 15.8575C21.1437 15.3393 21.5965 14.7714 22.0493 14.1539C22.5138 13.5254 22.955 12.9135 23.373 12.3181L24 12.7812C23.8491 13.0127 23.6517 13.3215 23.4078 13.7074C23.1756 14.0823 22.9028 14.4902 22.5893 14.9313C22.2758 15.3613 21.9332 15.8024 21.5617 16.2544C21.1901 16.6955 20.7954 17.098 20.3774 17.4618C19.971 17.8147 19.5472 18.1069 19.106 18.3384C18.6647 18.5589 18.2235 18.6692 17.7823 18.6692C17.5385 18.6692 17.3005 18.6361 17.0682 18.57C16.8476 18.5038 16.6502 18.3991 16.4761 18.2557C16.3019 18.1014 16.1626 17.9029 16.0581 17.6603C15.9535 17.4177 15.9013 17.12 15.9013 16.7672C15.9013 16.282 15.9884 15.8079 16.1626 15.3448C16.3367 14.8817 16.5573 14.4241 16.8244 13.972C17.0914 13.5199 17.3759 13.0734 17.6778 12.6323C17.9913 12.1802 18.2816 11.7337 18.5486 11.2926C18.8157 10.8516 19.0363 10.4105 19.2105 9.96947C19.3846 9.51739 19.4717 9.0598 19.4717 8.59669C19.4717 8.36515 19.4253 8.1832 19.3324 8.05089C19.2395 7.90755 19.0653 7.83588 18.8099 7.83588C18.4035 7.83588 17.9739 7.99576 17.5211 8.31552C17.0682 8.62425 16.598 9.04327 16.1103 9.57253C15.6226 10.1018 15.1234 10.7193 14.6125 11.4249C14.1016 12.1196 13.5907 12.8583 13.0798 13.6412C12.5806 14.4131 12.0813 15.2014 11.582 16.0064C11.0944 16.8002 10.6241 17.5666 10.1713 18.3053L8.70826 17.5776C9.32365 16.3757 9.8984 15.3007 10.4325 14.3524C10.9782 13.4041 11.4543 12.5496 11.8607 11.7888C12.267 11.017 12.5864 10.3168 12.8186 9.68831C13.0508 9.04877 13.1669 8.44783 13.1669 7.8855C13.1669 7.77523 13.1553 7.66497 13.1321 7.55471C13.1089 7.43342 13.0624 7.32867 12.9927 7.24046C12.9231 7.15225 12.8302 7.08058 12.7141 7.02545C12.6096 6.95929 12.4703 6.92621 12.2961 6.92621C11.9013 6.92621 11.5007 7.10263 11.0944 7.45547C10.6879 7.79729 10.2584 8.27141 9.80551 8.87785C9.35268 9.47328 8.86503 10.1734 8.34253 10.9784C7.83165 11.7723 7.27432 12.6158 6.67054 13.5089C6.07839 14.402 5.43396 15.3227 4.7373 16.271C4.04064 17.2082 3.28012 18.1179 2.45573 19L1.25399 18.2392C1.62554 17.7099 2.01451 17.1531 2.4209 16.5687C2.83889 15.9733 3.24529 15.3723 3.64006 14.7659C4.04644 14.1595 4.42961 13.5585 4.78954 12.9631C5.16109 12.3567 5.4862 11.7833 5.76487 11.243C6.04353 10.7027 6.26416 10.2065 6.4267 9.75445C6.58927 9.30237 6.67054 8.91645 6.67054 8.59669C6.67054 8.2218 6.57183 7.95165 6.37446 7.78626C6.17707 7.62087 5.92161 7.53817 5.60812 7.53817C5.23657 7.53817 4.87084 7.66497 4.51088 7.91857C4.16256 8.17217 3.79101 8.53054 3.39622 8.99363C3.01307 9.45675 2.59508 10.0136 2.14224 10.6641C1.70102 11.3036 1.19594 12.0093 0.626996 12.7812L0 12.3181C0.615384 11.3918 1.16691 10.5759 1.65457 9.87023C2.15385 9.16455 2.62411 8.57464 3.06531 8.10051C3.50652 7.62638 3.94195 7.26802 4.37154 7.02545C4.81278 6.78287 5.28884 6.66158 5.79972 6.66158C5.95065 6.66158 6.14224 6.68914 6.37446 6.74427C6.6183 6.79941 6.85632 6.89864 7.08854 7.04198C7.32076 7.18533 7.52395 7.3838 7.69811 7.6374C7.88389 7.89101 7.99419 8.21628 8.02904 8.61322C8.67926 7.81934 9.35848 7.18533 10.0668 6.7112C10.775 6.23707 11.4427 6 12.0697 6C12.5225 6 12.9057 6.08821 13.2192 6.26463C13.5327 6.43003 13.7823 6.65055 13.9681 6.92621C14.1655 7.20187 14.3048 7.51612 14.3861 7.86896C14.479 8.21077 14.5254 8.55811 14.5254 8.91095C14.5254 8.99916 14.5196 9.09287 14.508 9.19212C14.508 9.29134 14.5022 9.39058 14.4906 9.48982Z"/>
</svg>