<svg>
  <path fill="#9D5887" d="M13.8679 9.68448C14.1205 9.39609 14.3817 9.12892 14.6517 8.88295C14.9216 8.63698 15.1916 8.42494 15.4615 8.24682C15.7315 8.0687 15.9971 7.93299 16.2584 7.8397C16.5283 7.73791 16.7852 7.68702 17.029 7.68702C17.2206 7.68702 17.4078 7.72095 17.5907 7.7888C17.7823 7.84818 17.9521 7.94572 18.1001 8.08142C18.2482 8.20865 18.3657 8.37405 18.4528 8.57761C18.5399 8.78117 18.5835 9.02291 18.5835 9.30279C18.5835 9.70992 18.5268 10.1128 18.4137 10.5114C18.3004 10.9016 18.1567 11.2833 17.9826 11.6565C17.8084 12.0297 17.6212 12.3902 17.4209 12.7379C17.2293 13.0857 17.0465 13.4207 16.8723 13.743C16.6981 14.0568 16.5544 14.3579 16.4412 14.6463C16.328 14.9262 16.2714 15.1849 16.2714 15.4224C16.2714 15.609 16.3193 15.7447 16.4151 15.8295C16.5196 15.9058 16.6285 15.944 16.7417 15.944C16.9681 15.944 17.2337 15.8168 17.5385 15.5623C17.852 15.3079 18.1785 14.9813 18.5181 14.5827C18.8578 14.1841 19.1974 13.7472 19.537 13.2723C19.8853 12.7888 20.2163 12.3181 20.5298 11.86L21 12.2163C20.8868 12.3944 20.7388 12.6319 20.5559 12.9288C20.3817 13.2171 20.1771 13.531 19.9419 13.8702C19.7068 14.201 19.4499 14.5403 19.1713 14.888C18.8926 15.2273 18.5965 15.5369 18.283 15.8168C17.9782 16.0882 17.6604 16.313 17.3295 16.4911C16.9986 16.6607 16.6676 16.7455 16.3367 16.7455C16.1539 16.7455 15.9753 16.7201 15.8012 16.6692C15.6357 16.6183 15.4877 16.5377 15.357 16.4275C15.2264 16.3087 15.1219 16.1561 15.0435 15.9695C14.9652 15.7829 14.926 15.5539 14.926 15.2824C14.926 14.9092 14.9913 14.5445 15.1219 14.1883C15.2525 13.8321 15.418 13.4801 15.6183 13.1323C15.8186 12.7846 16.0319 12.4411 16.2584 12.1018C16.4935 11.754 16.7112 11.4105 16.9115 11.0713C17.1118 10.732 17.2772 10.3927 17.4078 10.0534C17.5385 9.70568 17.6038 9.35369 17.6038 8.99745C17.6038 8.81935 17.5689 8.67939 17.4993 8.57761C17.4296 8.46735 17.299 8.41221 17.1074 8.41221C16.8026 8.41221 16.4804 8.5352 16.1408 8.78117C15.8012 9.01866 15.4485 9.34097 15.0827 9.7481C14.717 10.1552 14.3425 10.6302 13.9594 11.173C13.5762 11.7074 13.193 12.2757 12.8099 12.8779C12.4354 13.4716 12.061 14.078 11.6865 14.6972C11.3208 15.3079 10.9681 15.8974 10.6284 16.4657L9.5312 15.9058C9.99274 14.9813 10.4238 14.1544 10.8244 13.4249C11.2337 12.6955 11.5907 12.0382 11.8955 11.4529C12.2003 10.8592 12.4398 10.3206 12.6139 9.83716C12.7881 9.34521 12.8752 8.88295 12.8752 8.45038C12.8752 8.36556 12.8665 8.28075 12.8491 8.19593C12.8316 8.10263 12.7968 8.02205 12.7446 7.9542C12.6923 7.88634 12.6226 7.83121 12.5356 7.7888C12.4572 7.73791 12.3527 7.71247 12.2221 7.71247C11.926 7.71247 11.6255 7.84818 11.3208 8.11959C11.016 8.38253 10.6938 8.74724 10.3541 9.21373C10.0145 9.67176 9.64877 10.2103 9.2569 10.8295C8.87373 11.4402 8.45574 12.0891 8.00291 12.7761C7.55879 13.4631 7.07547 14.1713 6.55298 14.9008C6.03048 15.6217 5.46009 16.3215 4.8418 17L3.94049 16.4148C4.21916 16.0076 4.51089 15.5793 4.81568 15.1298C5.12917 14.6718 5.43397 14.2095 5.73004 13.743C6.03483 13.2765 6.3222 12.8143 6.59216 12.3562C6.87082 11.8897 7.11465 11.4487 7.32365 11.0331C7.53265 10.6175 7.69812 10.2358 7.82003 9.88804C7.94195 9.54028 8.00291 9.24343 8.00291 8.99745C8.00291 8.70908 7.92887 8.50127 7.78085 8.37404C7.6328 8.24682 7.44121 8.18321 7.20609 8.18321C6.92743 8.18321 6.65313 8.28075 6.38316 8.47583C6.12192 8.6709 5.84325 8.94657 5.54716 9.30279C5.2598 9.65904 4.94631 10.0874 4.60668 10.5878C4.27576 11.0797 3.89695 11.6226 3.47025 12.2163L3 11.86C3.46154 11.1476 3.87518 10.5199 4.24093 9.9771C4.61538 9.43427 4.96808 8.9805 5.29898 8.61578C5.62989 8.25106 5.95647 7.9754 6.27866 7.7888C6.60958 7.60221 6.96663 7.50891 7.34979 7.50891C7.46298 7.50891 7.60668 7.53011 7.78085 7.57252C7.96373 7.61493 8.14224 7.69126 8.3164 7.80153C8.49057 7.91179 8.64296 8.06446 8.77358 8.25954C8.91291 8.45462 8.99564 8.70483 9.02178 9.01017C9.50944 8.39949 10.0189 7.91179 10.5501 7.54707C11.0813 7.18236 11.582 7 12.0523 7C12.3919 7 12.6793 7.06785 12.9144 7.20356C13.1495 7.33079 13.3367 7.50042 13.476 7.71247C13.6241 7.92451 13.7286 8.16624 13.7895 8.43766C13.8592 8.70059 13.894 8.96778 13.894 9.23919C13.894 9.30705 13.8897 9.37913 13.881 9.45547C13.881 9.5318 13.8766 9.60814 13.8679 9.68448Z"/>
</svg>
