<svg>
  <path fill="#34495e" d="M18.34,2.16c1.93,0,3.51,1.57,3.51,3.51v12.67c0,1.93-1.57,3.51-3.51,3.51-.74,0-1.35-.6-1.35-1.35,0-2.75-2.24-4.99-4.99-4.99-1.33,0-2.59.52-3.53,1.46-.94.94-1.46,2.2-1.46,3.53,0,.36-.14.7-.39.95-.25.25-.59.39-.95.39-1.93,0-3.51-1.57-3.51-3.51V5.66c0-1.93,1.57-3.51,3.51-3.51h12.67M18.34,0H5.66C2.54,0,0,2.54,0,5.66v12.67C0,21.46,2.54,24,5.66,24h0c1.94,0,3.51-1.57,3.51-3.51h0c0-1.56,1.27-2.83,2.83-2.83h0c1.56,0,2.83,1.27,2.83,2.83h0c0,1.94,1.57,3.51,3.51,3.51h0c3.13,0,5.66-2.54,5.66-5.66V5.66C24,2.54,21.46,0,18.34,0h0Z" />
  <path fill="#e67e22" d="M13.08,11.33h-7.42c-.6,0-1.08-.48-1.08-1.08s.48-1.08,1.08-1.08h7.42c.6,0,1.08.48,1.08,1.08s-.48,1.08-1.08,1.08ZM15.91,6.74H5.66c-.6,0-1.08-.48-1.08-1.08s.48-1.08,1.08-1.08h10.25c.6,0,1.08.48,1.08,1.08s-.48,1.08-1.08,1.08Z" />
</svg>