<svg>
  <path fill-rule="evenodd" clip-rule="evenodd" d="M4.00064 3.92004L4.62064 20.43C4.63017 20.6823 4.73417 20.9207 4.91199 21.0998C5.08982 21.2789 5.32849 21.3847 5.58064 21.396L19.0026 21.999C19.1383 22.0051 19.2738 21.9837 19.401 21.936C19.5281 21.8882 19.6443 21.8153 19.7425 21.7215C19.8407 21.6277 19.9189 21.5149 19.9724 21.3901C20.0259 21.2652 20.0535 21.1309 20.0536 20.995V3.00604C20.0538 2.86858 20.0257 2.73256 19.9712 2.60638C19.9167 2.48019 19.8369 2.36654 19.7367 2.27244C19.6365 2.17833 19.518 2.10578 19.3887 2.05927C19.2593 2.01277 19.1218 1.99329 18.9846 2.00204L17.8807 2.07108L17.8807 2.07104L15.9487 2.19104L15.9486 2.1919L4.94464 2.88004C4.68274 2.89604 4.43746 3.01374 4.2611 3.20803C4.08475 3.40232 3.99128 3.65782 4.00064 3.92004ZM15.9486 2.1919L15.8547 4.45805C15.8535 4.48641 15.8604 4.51452 15.8746 4.53911C15.8888 4.56369 15.9097 4.58375 15.9348 4.59695C15.96 4.61014 15.9883 4.61594 16.0166 4.61365C16.0449 4.61137 16.072 4.6011 16.0947 4.58404L16.9747 3.91604L17.7187 4.50204C17.7411 4.51982 17.7682 4.5308 17.7967 4.53367C17.8252 4.53655 17.8539 4.5312 17.8795 4.51826C17.9051 4.50533 17.9264 4.48534 17.9409 4.46067C17.9555 4.436 17.9627 4.40767 17.9617 4.37904L17.8807 2.07108L15.9486 2.1919ZM13.3877 9.73204C13.3877 10.123 16.0237 9.93604 16.3767 9.66105C16.3767 6.99704 14.9477 5.59704 12.3297 5.59704C9.71167 5.59704 8.24567 7.01904 8.24567 9.15104C8.24567 11.288 9.90367 12.219 11.3127 13.01C12.3537 13.594 13.2577 14.102 13.2577 14.963C13.2577 15.531 12.9797 15.869 12.3667 15.869C11.5687 15.869 11.2527 15.461 11.2907 14.075C11.2907 13.775 8.24567 13.681 8.15267 14.075C7.91667 17.434 10.0097 18.403 12.4047 18.403C14.7247 18.403 16.5447 17.167 16.5447 14.927C16.5447 12.5912 14.792 11.6622 13.345 10.8952L13.3447 10.895C12.3257 10.355 11.4577 9.89504 11.4577 9.08004C11.4577 8.28004 12.0517 8.17404 12.4037 8.17404C12.7757 8.17404 13.4437 8.23904 13.3877 9.73204Z" />
</svg>
