<svg >
  <mask id="mask0_1604_1177" style="mask-type:luminance" maskUnits="userSpaceOnUse" x="0" y="0" width="24" height="24">
    <rect width="24" height="24" fill="white"/>
  </mask>
  <g mask="url(#mask0_1604_1177)">
    <path fill-rule="evenodd" clip-rule="evenodd" d="M18.75 3C19.9926 3 21 4.00736 21 5.25V18.75C21 19.9926 19.9926 21 18.75 21H5.25C4.00736 21 3 19.9926 3 18.75V5.25C3 4.00736 4.00736 3 5.25 3H18.75ZM8.31848 5.99707V9.21936H6.78918V11.1991H8.31848V17.625H10.8025V11.1991H12.5669V9.21936H10.8025V5.99707H8.31848Z" fill="#F59E0B"/>
    <path d="M10.6992 9.219H18.0252V11.091L13.9932 15.321H18.0252V17.625H10.4472V15.771L14.4072 11.523H10.6992V9.219Z" fill="#6366F1"/>
  </g>
</svg>
