<?xml version="1.0" encoding="UTF-8"?>
<svg id="Symbol" xmlns="http://www.w3.org/2000/svg" width="16" height="16" viewBox="0 0 16 16">
  <path d="M3,0h10C14.65,0,16,1.35,16,3v10c0,1.66-1.35,3-3,3H0V3C0,1.35,1.35,0,3,0Z" fill="#333" stroke-width="0"/>
  <polygon points="9.5 5.46 6.63 12.23 4.92 12.23 3.95 9.94 3.95 5.46 4.13 5.46 5.78 9.78 7.42 5.46 9.5 5.46" fill="#f93" stroke-width="0"/>
  <polygon points="3.95 5.46 3.95 9.94 2.06 5.46 3.95 5.46" fill="#e66633" stroke-width="0"/>
  <path d="M3,2c.67,0,1.2.49,1.2,1.13s-.53,1.14-1.2,1.14-1.23-.51-1.23-1.14.57-1.13,1.23-1.13ZM.13,13.82v1.72h.89c1.92,0,2.93-1.16,2.93-3.14v-2.47l-1.89-4.47h-.02v6.97c0,.77-.32,1.39-1.07,1.39H.13Z" fill="#c33" stroke-width="0"/>
  <path d="M14.25,8.52v3.71h-1.91v-3.61c0-1.06-.64-1.54-1.3-1.54s-1.53.36-1.53,1.59v3.55h-1.91v-6.77h1.91v1.14c.29-.91,1.37-1.32,2.04-1.32,1.78,0,2.71,1.2,2.7,3.23Z" fill="#06c" stroke-width="0"/>
</svg>