<svg>
  <path fill="#ff97ff" d="M11.36,6.39l.06.13c.34.8.45,1.66.65,2.5.45,1.85.83,3.69,1.46,5.49.44,1.26,1.24,2.64,1.16,4.02-.02.37-.09.7-.19.98-.27.06-.55.11-.83.14-.42.04-.86.05-1.29.03-.34-.02-1.49-.06-1.74-.31-1.88-1.21-1.08-4.23-.83-6.08.08-.6.18-1.19.3-1.79.13-.63.29-1.25.44-1.88.21-.88.3-2.43.8-3.23Z" />
  <path fill="#ea2934" d="M14.51,19.5c-.37,1.02-1.24,1.47-2.23,1.5-.75.03-1.68-.33-2.58-.8-1.5-.8-3.01-1.88-4.23-3.07-.26-.26-1.35-1.34-.5-1.58,1.29-.36,3.64,2.53,2.62.29-1.11-2.42-2.68-4.66-3.63-7.14-.2-.53-.89-2.04-.36-2.58.36-.37.91.4,1.08.63.78,1.09,1.26,2.38,1.93,3.54.03.06.79,1.31.97,1.05.21-.29-.25-1.31-.33-1.59-.44-1.49-.99-2.94-1.42-4.43-.11-.4-.59-1.78.11-1.96.41-.11.73.59.87.87.26.53.5,1.07.72,1.62.23.56.42,1.15.71,1.68.07.12.14.25.23.35.03.03.1.11.15.07.07-.05.05-.2.05-.27,0-.23-.05-.45-.1-.67-.22-.92-.49-1.83-.67-2.75-.05-.25-.27-1.04.03-1.23.42-.25.83.7.92.95.33.84.52,1.72.77,2.58.12.41.25.96.56,1.27.32.32.32-.17.31-.39-.02-.31-.24-1.68.29-1.66.28.01.46.34.58.6-.5.8-.59,2.35-.8,3.23-.07.27.02.76-.05,1.03-.04.17-.24.14-.28.31-.04.18-.08.36-.12.54-.12.59-.22,1.19-.3,1.79-.26,1.85-1.05,4.87.83,6.08.25.25,1.4.29,1.74.31.44.03.87.02,1.29-.03.28-.03.56-.08.83-.14Z" />
  <path fill="#3f9cf9" d="M11.36,6.39s.05-.08.08-.12c.66-.89.97.71.98,1.12v.05c0,.38-.08.79-.03,1.16,0,.03.02.11.06.1.26-.07.51-.71.62-.9.45-.79.92-1.57,1.52-2.26.17-.2.68-.88,1.02-.67.5.32-.11,1.84-.23,2.27-.03.11-.25.75,0,.77.3.02.66-.65.79-.85.57-.86,1.07-1.74,1.75-2.51.18-.21.56-.69.9-.59.48.15.14,1.52.06,1.81-.38,1.33-1.18,2.51-1.67,3.81-.11.3-.49,1.07-.32,1.39.14.27.74-.57.79-.63.5-.64.91-1.41,1.55-1.93.23-.18.59-.44.89-.24.48.32-.2,1.59-.38,1.93-.64,1.24-1.47,2.37-2.2,3.55-.22.35-.75,1.01-.65,1.47.08.38.68.1.87,0,.66-.33,1.28-.71,2.04-.79.28-.03.71-.05.81.29.13.46-1.44,1.22-1.76,1.5-.59.52-.87,1.24-1.37,1.81-.7.79-1.88,1.32-2.97,1.57.1-.28.17-.61.19-.98.03-.61-.11-1.22-.31-1.82-.26-.75-.9.32-1.15-.38-.31-.88-.26-3.6-.49-4.49-.24-.93-.45-1.87-.68-2.81-.2-.84-.31-1.7-.65-2.5l-.06-.13Z" />
</svg>
 