<svg>
  <path fill='#76C1E4' d="M7.92,19.57c-.23,0-.45-.11-.59-.29-.17-.22-.21-.52-.09-.77.69-1.52.83-2.76.42-3.7-.29-.68-.79-1.05-1.38-1.49-.74-.56-1.58-1.19-1.94-2.48-.52-1.88.45-3.48.56-3.66,1.18-1.85,3.24-2.07,3.47-2.09,1.38-.11,2.72.42,3.69,1.42.62-.65,1.69-1.45,3.21-1.48,1.47-.04,2.89.66,3.78,1.87.62.84.93,1.86.9,3.02-.06,3.07-2.73,5.13-4.33,6.36-2.17,1.67-4.72,2.78-7.58,3.28-.04,0-.09.01-.13.01ZM8.73,6.59c-.08,0-.16,0-.24,0-.06,0-1.52.14-2.33,1.4-.03.05-.73,1.17-.38,2.45.22.81.74,1.19,1.4,1.69.66.49,1.4,1.05,1.85,2.1.44,1.02.46,2.22.06,3.58,2.09-.53,3.97-1.44,5.62-2.71,1.38-1.07,3.7-2.85,3.75-5.2.02-.82-.19-1.53-.61-2.1-.47-.63-1.38-1.29-2.54-1.26-1.69.04-2.56,1.51-2.59,1.57-.13.23-.37.37-.64.37-.26,0-.51-.13-.65-.35-.61-.97-1.63-1.54-2.7-1.54Z" />
</svg>